<?xml version="1.0" encoding="UTF-8"?>
<svg xmlns="http://www.w3.org/2000/svg" viewBox="0 0 600 800">
  <defs>
    <style>
      .cls-1 {
        fill: #53645b;
      }

      .cls-2 {
        fill: #a9c8b9;
      }

      .cls-3 {
        fill: #ffd1ba;
      }

      .cls-4 {
        fill: gray;
      }

      .cls-5 {
        fill: #424242;
      }

      .cls-6 {
        fill: #b35730;
      }

      .cls-7 {
        fill: #f5f0e1;
      }

      .cls-8 {
        fill: #94baa8;
      }

      .cls-9 {
        fill: #f2f2f2;
      }
    </style>
  </defs>
  <g id="Layer_2" data-name="Layer 2">
    <rect class="cls-8" width="600" height="800"/>
  </g>
  <g id="Layer_1" data-name="Layer 1">
    <path class="cls-2" d="m515.48,697.5c.17-1.09.27-2.97.27-4.53,0-22.65-18.35-40.97-40.98-40.97-2.86,0-5.65.32-8.34.87-8.94-17.63-27.22-29.71-48.33-29.71-25.9,0-47.54,18.2-52.89,42.5-.26,0-.51-.1-.77-.1-18.61,0-33.94,14.48-36.1,31.95h187.14Z"/>
    <path class="cls-2" d="m63.11,550.08c-.15-.78-.23-2.48-.23-3.82,0-19.34,15.66-34.95,34.98-34.95,2.44,0,4.82.28,7.12.76,7.63-15.05,23.23-25.36,41.25-25.36,22.11,0,40.58,15.54,45.15,36.29.22,0,.44-.14.66-.14,15.88,0,28.97,12.34,30.81,27.22H63.11Z"/>
    <path class="cls-2" d="m376.8,349.41c.5-2.37.76-4.83.76-7.35,0-19.76-16.01-35.79-35.76-35.79-14.73,0-27.38,8.92-32.85,21.65-3.89-2.43-8.48-3.84-13.41-3.84-13.99,0-25.33,11.34-25.35,25.33h106.61Z"/>
    <g>
      <g>
        <path class="cls-3" d="m205,410.61c-.01,1.68.86,3.1,1.76,3.06.9-.04,1.49-1.35,1.5-3.03.01-1.68-.7-3.06-1.61-3.06-.9,0-1.64,1.35-1.66,3.04Z"/>
        <path class="cls-3" d="m345.93,438.52c.83-1.46,2.14-2.29,2.93-1.84.78.45.74,1.99-.09,3.46-.83,1.46-2.14,2.29-2.93,1.84-.78-.45-.74-1.99.09-3.46Z"/>
        <polygon class="cls-5" points="345.53 438.44 317.88 482.03 289.08 498.53 271 500.43 250.29 495.7 235.29 488.37 214.27 463.02 208.53 410.61 204.71 410.64 203.08 469.6 214.2 512.52 214.97 568.61 181.15 628.86 178.52 696.8 172.59 698.63 180.88 699.69 195.37 633.35 234.32 595.65 222.52 644.03 232.74 710.67 227.73 713.9 235.84 713.35 238.05 645.54 273.52 588.83 298.23 528.46 327.08 492.09 349.14 440.28 345.53 438.44"/>
        <polygon class="cls-3" points="273.75 479.62 271 500.43 250.29 495.7 257.1 475.58 273.75 479.62"/>
        <path class="cls-5" d="m270.51,481.66l-.84,6.31s2.01-.79,2.09.75c.12,2.15-2.25,1.06-2.25,1.06-.2,3.97.48,7.41,1.49,10.65,0,0,9.79-19.95,2.87-21.02.34-11.71-19.54-1.41-21.13-10.72-2.91,7.26,1.07,11.58,17.77,12.97Z"/>
        <polygon class="cls-9" points="271 500.43 256.15 518.4 250.29 495.7 271 500.43"/>
        <polygon class="cls-6" points="259.15 499.39 261.86 500.01 262.52 502.05 260.51 504.08 261.18 512.31 256.15 518.4 254.21 510.9 258.56 503.56 257.55 500.75 259.15 499.39"/>
        <polygon class="cls-4" points="256.15 518.4 247.89 506.23 250.28 503.19 247.43 499.78 250.29 495.7 256.15 518.4"/>
        <polygon class="cls-4" points="256.15 518.4 268.87 511.03 268.04 507.24 272.08 505.42 271 500.43 256.15 518.4"/>
      </g>
      <g>
        <path class="cls-7" d="m541.04,155.63c-110.19-58.82-231.29-88.53-359.13-86.7-35.3,43.09-66.04,92.09-91.18,145.78.68-.11,1.36-.2,2.04-.3l113.84,193.87c.12.2.43.11.42-.13l-13.91-201.05c94.9.76,184.34,23.87,265.56,67.76l-110.45,161.94c-.14.21.1.47.32.34l186.05-113.39c1.36,1.03,2.73,2.06,4.09,3.1,6.86-62.15,7.29-119.2,2.37-171.22Zm-334.81,250.41l-112.4-191.79c33.36-5,66.2-7.37,98.42-7.16l13.98,198.94Zm143.89,29.61l109.41-160.32c25.59,13.88,50.35,29.82,74.21,47.78l-183.62,112.55Z"/>
        <path class="cls-1" d="m172.1,194.47c111.63-3.56,216.43,23.25,309.84,77.9,16.1,9.42,32.07,19.75,47.87,31.03,2.02-20.08,3.37-39.58,4.1-58.49.73-18.98.82-37.41.33-55.29-.31-11.02-.84-21.84-1.59-32.47-13.48-7.07-27.03-13.67-40.62-19.79-80.5-36.26-166.39-57.31-256.03-62.23-15.62-.86-31.46-1.24-47.53-1.14-6.91,8.87-13.64,17.98-20.17,27.33-10.6,15.18-20.7,30.97-30.24,47.34-9.51,16.3-18.47,33.18-26.86,50.58,20.75-2.56,41.05-4.13,60.9-4.76Zm348.64-9.84c.08,15.6-.27,31.63-1.08,48.09-19.28-11.32-36.25-3.09-38.63,19.02-37.37-20.77-75.9-37.12-115.29-49.07,24.25-4.39,44.58-21.26,48.95-44.16,3.7-19.53-7.2-39.03-25.94-50.47,33.9,9.53,67.32,21.71,100.13,36.56,0,.1-.01.19-.02.29-.1,12.39,14.1,30.11,31.87,39.75ZM183.3,103c21.32-.38,44.04-9.2,51.11-19.96.06-.09.1-.17.15-.26,37.16,1.98,73.34,6.72,108.45,14.06-22.87,1.33-43.35,13.13-50.7,31.61-8.6,21.68.79,45.41,20.06,60.79-41.19-8.3-84.24-12.27-128.94-11.59,9.17-19.68-1.93-34.32-25.66-33.11,8.11-14.31,16.63-28.16,25.51-41.54Z"/>
      </g>
    </g>
  </g>
</svg>