<?xml version="1.0" encoding="UTF-8"?>
<svg xmlns="http://www.w3.org/2000/svg" viewBox="0 0 420.28 316.82">
  <defs>
    <style>
      .cls-1 {
        fill: #bc5b2b;
      }

      .cls-2 {
        fill: #f4ece4;
      }

      .cls-3 {
        fill: #ffd241;
      }

      .cls-4, .cls-5, .cls-6 {
        fill: #2a7ab9;
      }

      .cls-7 {
        fill: #f3b910;
      }

      .cls-8 {
        isolation: isolate;
      }

      .cls-9 {
        fill: #4d2a14;
      }

      .cls-10 {
        fill: #6b391d;
      }

      .cls-11 {
        fill: #9bceea;
      }

      .cls-12 {
        fill: #eadacc;
      }

      .cls-13 {
        fill: #3fa0d7;
      }

      .cls-14, .cls-15, .cls-16, .cls-17 {
        fill: #244442;
      }

      .cls-18 {
        fill: #88b5a5;
      }

      .cls-19 {
        fill: #a74d2a;
      }

      .cls-5, .cls-15, .cls-16, .cls-6, .cls-17 {
        mix-blend-mode: multiply;
      }

      .cls-5, .cls-17 {
        opacity: .7;
      }

      .cls-20 {
        fill: #335d5b;
      }

      .cls-15, .cls-6 {
        opacity: .4;
      }

      .cls-21 {
        fill: #df341a;
      }

      .cls-16 {
        opacity: .3;
      }

      .cls-22 {
        fill: #eaaa0a;
      }

      .cls-23 {
        fill: #88441d;
      }

      .cls-24 {
        fill: #c1251e;
      }
    </style>
  </defs>
  <g class="cls-8">
    <g id="OBJECTS">
      <g>
        <path class="cls-16" d="m407.11,118.1c-2.59-3.77-6.94-7.2-12.63-10.1,10.53-6.59,8.73-21.49-4.23-33.65-12.07-11.32-29.63-16.35-41.09-12.24-.84.3-4.5,1.96-6.67,3.02-.25.12-.5.24-.75.37-.27.14-.49.25-.64.34-3.2,1.83-5.35,4.39-6.48,7.39-.44.21-.89.41-1.31.65-.09.05-.17.1-.25.16-4.28.13-8.39.94-12.03,2.45-6.82,2.82-15.54,6.48-23.9,10.13L142.88,23.45c-.15-.06-.34-.13-.5-.19-5.5-1.99-12.15-.34-14.87,3.69-2.72,4.03-.46,8.91,5.03,10.9l151.23,54.78c-.3.14-.6.28-.9.42-1.61.22-3.13.58-4.56,1.1-.77.13-1.52.3-2.25.5-2.49.17-4.84.62-6.99,1.39-.87.31-4.69,2.03-6.95,3.12-.27.13-.54.26-.8.4-.28.14-.5.26-.66.35-11.66,6.64-9.95,22.45,3.81,35.31.7.65,1.42,1.28,2.16,1.89.1.08.19.16.29.25.7.58,1.42,1.14,2.15,1.68.13.09.25.19.38.28.73.53,1.47,1.05,2.22,1.54.11.07.23.15.35.22.78.5,1.58.99,2.38,1.46.03.02.07.04.1.06,0,0,.02,0,.02.01v12.58c0,.53.03,1.05.08,1.57.05.51.13,1.01.22,1.52,0,0,0,0,0,.01,3.32,17.56,34.53,31.32,72.57,31.32s69.24-13.76,72.57-31.32c0,0,0,0,0,0,0-.03,0-.05.01-.08.09-.48.17-.96.21-1.44.05-.52.08-1.05.08-1.58v-17.34c0-7.34-4.88-14.14-13.16-19.72Z"/>
        <g>
          <g>
            <path class="cls-9" d="m390.2,141.83c0-18.32-26.91-33.17-60.1-33.17s-60.1,14.85-60.1,33.17v16.71c0,18.32,26.91,33.17,60.1,33.17s60.1-14.85,60.1-33.17v-16.71Z"/>
            <path class="cls-10" d="m390.2,141.83c0,18.32-26.91,33.17-60.1,33.17s-60.1-14.85-60.1-33.17,26.91-33.17,60.1-33.17,60.1,14.85,60.1,33.17Z"/>
            <g>
              <path class="cls-22" d="m390.2,152.01c-2.29,16.84-28.36,30.17-60.1,30.17s-57.82-13.33-60.1-30.17v6.53c0,1.01.1,2,.25,2.99,3.16,5.08,8.35,9.72,15.36,13.59,11.91,6.57,27.71,10.19,44.49,10.19s32.58-3.62,44.49-10.19c7.01-3.87,12.2-8.5,15.36-13.59.16-.99.25-1.98.25-2.99v-6.53Z"/>
              <path class="cls-7" d="m330.1,182.17c-13.48,0-25.92-2.41-35.97-6.46v3.34c10.49,4.06,22.93,6.25,35.97,6.25,9.85,0,19.36-1.26,27.95-3.62v-3.24c-8.36,2.38-17.86,3.72-27.95,3.72Z"/>
              <path class="cls-3" d="m330.1,182.17c-5.63,0-11.09-.43-16.26-1.21v3.17c5.24.77,10.7,1.18,16.26,1.18,2.78,0,5.53-.11,8.24-.3v-3.14c-2.69.2-5.44.31-8.24.31Z"/>
            </g>
          </g>
          <g>
            <path class="cls-9" d="m381.57,130.61c0-14.75-23.05-26.7-51.48-26.7s-51.48,11.95-51.48,26.7v6.29c0,14.75,23.05,26.7,51.48,26.7s51.48-11.96,51.48-26.7v-6.29Z"/>
            <path class="cls-10" d="m381.57,130.61c0,14.75-23.05,26.7-51.48,26.7s-51.48-11.95-51.48-26.7,23.05-26.7,51.48-26.7,51.48,11.95,51.48,26.7Z"/>
          </g>
        </g>
        <g>
          <path class="cls-9" d="m279.64,91.29L131.69,18.15c-4.74-2.34-6.68-8.08-4.34-12.82,2.34-4.74,8.08-6.68,12.82-4.34.14.07.3.15.43.23l144.07,80.51c2.6,1.46,3.54,4.75,2.08,7.35-1.41,2.52-4.55,3.47-7.11,2.21Z"/>
          <path class="cls-10" d="m127.35,5.33c2.34-4.74,8.08-6.68,12.82-4.34.14.07.3.15.43.23l144.07,80.51c2.6,1.46,3.54,4.75,2.08,7.35L127.35,5.33Z"/>
          <g>
            <path class="cls-1" d="m353.85,61.11c-10.41-13.32-25.54-19.24-35.42-14.4-.93.45-5.88,3.55-6.95,4.38-9.64,7.53-8.22,25.44,3.15,40.01,10.05,12.86,24.5,18.82,34.38,14.86,1.31-.52,6.92-4.01,7.99-4.84,9.63-7.53,8.22-25.44-3.15-40.01Z"/>
            <path class="cls-23" d="m349.53,63.84c11.38,14.57,12.79,32.48,3.15,40.01-9.64,7.53-26.67,1.82-38.05-12.75-11.38-14.57-12.79-32.48-3.15-40.01,9.64-7.53,26.67-1.82,38.05,12.75Z"/>
          </g>
          <g>
            <path class="cls-9" d="m339.66,70.61c10,12.8,10.58,29.05,1.3,36.29-9.28,7.24-24.9,2.74-34.9-10.06-10-12.8-10.58-29.05-1.3-36.29,9.28-7.25,24.9-2.74,34.9,10.06Z"/>
            <path class="cls-10" d="m336.82,72.8c10,12.8,10.97,28.75,2.17,35.62-8.8,6.87-24.03,2.07-34.03-10.73-10-12.8-10.97-28.75-2.17-35.62,8.8-6.87,24.04-2.07,34.03,10.73Z"/>
          </g>
          <g>
            <path class="cls-7" d="m330.43,74.06c-10.39-13.3-25.6-16.46-36.25-10.45-10.9,6.15-27.47,15.7-37.18,22.3-10.11,6.88-9.03,24.41,1.35,37.7,10.39,13.3,25.68,16.58,36.25,10.45,8.64-5.01,28.32-15.38,37.18-22.3,9.64-7.53,9.03-24.41-1.35-37.7Z"/>
            <path class="cls-3" d="m316.32,62.94l-66.3,39.77c.12,2.11.47,4.3,1.06,6.5l72.48-42.01c-2.33-1.79-4.76-3.21-7.24-4.26Z"/>
            <path class="cls-22" d="m334.33,86.94c-8.86,6.92-28.53,17.29-37.18,22.3-10.58,6.13-25.87,2.85-36.25-10.45-2.7-3.45-4.76-7.19-6.17-10.96-7.59,7.83-5.9,23.58,3.62,35.78,10.39,13.3,25.68,16.58,36.25,10.45,8.64-5.01,28.32-15.38,37.18-22.3,7.14-5.58,8.65-16.3,4.73-26.89-.66.75-1.38,1.44-2.18,2.07Z"/>
          </g>
          <g>
            <path class="cls-10" d="m290.87,98.22c10.82,13.85,12.31,30.76,3.33,37.77-8.98,7.01-25.03,1.47-35.85-12.38-10.82-13.85-12.31-30.76-3.33-37.78,8.98-7.01,25.03-1.47,35.84,12.38Z"/>
            <path class="cls-9" d="m287.98,99.66c11.04,14.13,12.71,31.27,3.73,38.29-8.98,7.01-25.2,1.24-36.25-12.89-11.04-14.13-12.57-31.07-3.59-38.08,8.98-7.01,25.07-1.45,36.11,12.69Z"/>
          </g>
          <g>
            <path class="cls-23" d="m286.34,101.56c-10.85-13.83-26.64-19.98-36.95-14.95-.97.47-6.14,3.68-7.25,4.55-10.05,7.82-8.58,26.41,3.29,41.54,10.48,13.36,25.56,19.54,35.87,15.43,1.37-.55,7.22-4.16,8.34-5.03,10.05-7.82,8.58-26.41-3.29-41.54Z"/>
            <path class="cls-19" d="m281.83,104.4c11.87,15.13,13.34,33.73,3.29,41.54-10.06,7.81-27.82,1.89-39.7-13.24-11.87-15.13-13.34-33.73-3.29-41.54,10.05-7.82,27.82-1.89,39.69,13.24Z"/>
          </g>
          <path class="cls-1" d="m245.42,132.7c-11.87-15.13-13.34-33.73-3.29-41.54,10.05-7.82,27.82-1.89,39.69,13.24l-36.41,28.3Z"/>
        </g>
        <path class="cls-16" d="m307.95,233.44c-.29-4.19.1-9.9,2.71-16.19l7.24-2.99,1.85-2.28-18.5-10.02,8.45-4.18.88-3.69-13.57-6.55c-.2-2.01.02-4.34,1.08-6.9l8.77-4.52c.38-.2.6-.53.58-.89-.01-.25-.05-1.09-.06-1.34-.02-.36-.27-.68-.67-.85l-11.74-5.08c-.41-.18-.92-.17-1.32.02-.19.09-.35.22-.46.38l-99.69-43.14c-7.28,2.05-8.29-2.64-8.29-2.64-2.33-4.86-10.65-2.57-10.65-2.57L13.6,197.95s-4.66,15.66,1.75,25.63c.75,1.68,2.27,3.3,5.33,3.26-1.21,6.05-1.39,13.27,1.73,19.98.64,2.11,2.42,4.22,7.12,3.59,0,0,7.02-.46,7.06,5.38l76.5,38.93-.68,8.22,5.59-3.43,4.5,9.83.78-9.44,22.99,11.7,172.35-67.37,1.35-3.6-12.01-7.18Z"/>
        <g>
          <g>
            <polygon class="cls-4" points="169.08 166.48 11.91 246.73 8.71 242.04 8.2 227.98 11.2 212.78 155.86 146.36 169.08 166.48"/>
            <path class="cls-11" d="m263.43,238.93l-99.54-75.91L10.88,238.98l-2.15,2.67s-1.25,9.32,6.3,8.02c0,0,6-.51,6.04,5.91l93.8,61.25,147.42-73.93,1.15-3.96Z"/>
            <path class="cls-4" d="m9.62,237.79s0,9.74,6.12,8.45c0,0,6.44-1.03,6.48,5.39l93.8,61.25,147.42-73.93-100.53-77.2L9.62,237.79Z"/>
            <path class="cls-5" d="m14.89,246.34c-2.62-8.99,2.8-30.59,2.8-30.59l33.03-8.31s177.97,5.59,178.06,5.95c.09.35,28.34,25.1,27.86,25.52-.49.43-140.97,72.59-140.97,72.59,0,0-85.01-56.37-93.7-61.75-1.39-4.88-7.09-3.41-7.09-3.41Z"/>
            <g>
              <path class="cls-12" d="m29.44,217.82l-5.01,2.49s-6.09,12.69-1.6,28.66l92.81,60.84,138.66-71s-5.26-21.38,1.82-31.74l-165.55-25.63-61.13,36.38Z"/>
              <path class="cls-2" d="m115.63,309.81l138.66-71s-4.19-14.26,3.11-30.52l-167.89-13.62-.51-.08,27.78,99.47-1.15,15.74Z"/>
            </g>
            <path class="cls-11" d="m263.26,207.5l-90.43-62.87c-6.42,1.62-6.76-3.59-6.76-3.59-1.45-5.51-8.78-3.72-8.78-3.72L11.71,208.58l-.19,2.91c4.36,2.31,4.06,7.03,4.06,7.03.19,4.07,6.13,2.88,6.13,2.88l97.17,64.2,142.8-75.59,1.58-2.5Z"/>
            <path class="cls-13" d="m11.71,208.58l145.58-71.25s7.33-1.78,8.78,3.72c0,0,.34,5.21,6.76,3.59l90.43,62.87-143.98,75.52L23.29,218.9s-5.94,1.2-6.13-2.88c0,0-1.09-5.13-5.45-7.44Z"/>
            <path class="cls-6" d="m166.07,141.05L17.16,216.02c.19,4.07,6.13,2.88,6.13,2.88l149.54-74.26c-6.42,1.62-6.76-3.59-6.76-3.59Z"/>
            <path class="cls-11" d="m11.71,208.58s-8.97,20.14-2.75,37.22l2.45-1.21s-6.03-14.91,1.91-31.76l-1.62-4.24Z"/>
            <g>
              <polygon class="cls-21" points="94.54 314.34 90.69 303.56 85.92 307.32 87.66 280.17 96.29 287.19 94.54 314.34"/>
              <polygon class="cls-24" points="96.29 287.19 94.54 314.34 90.69 303.56 91.97 283.68 96.29 287.19"/>
            </g>
          </g>
          <g>
            <polygon class="cls-14" points="154.26 125.26 5.94 220.9 2.29 216.56 1.4 192.1 139.08 106.57 154.26 125.26"/>
            <path class="cls-18" d="m255.41,187.87l-106.66-65.53L4.14,213.29l-1.87,2.87s-.31,9.4,7.07,7.34c0,0,5.92-1.11,6.6,5.27l99.48,51.51,139.24-88.37.75-4.05Z"/>
            <path class="cls-14" d="m2.77,212.23s.98,9.69,6.94,7.79c0,0,6.3-1.67,6.98,4.71l99.48,51.51,139.24-88.37-107.78-66.71L2.77,212.23Z"/>
            <path class="cls-17" d="m8.88,220.21c-3.51-8.68-.66-17-.66-17l32.41-25.3s177.63-12.32,177.76-11.98c.13.34,30.72,22.12,30.28,22.6-.44.47-132.96,86.39-132.96,86.39,0,0-90.24-47.54-99.43-52.02-1.88-4.72-7.4-2.68-7.4-2.68Z"/>
            <g>
              <path class="cls-12" d="m20.91,202.74l-4.74,2.98s-2.66,7.63.85,16.31l98.45,51.21,130.82-84.58s-5.85-8.51.15-19.53l-169.05-7.84-56.49,41.46Z"/>
              <path class="cls-2" d="m115.48,273.24l130.82-84.58s-5.85-8.51.15-19.53l-168.53-7.82-.52-.03,37.64,96.18.44,15.78Z"/>
            </g>
            <path class="cls-18" d="m251.57,165.75l-96.29-53.46c-6.22,2.25-7.09-2.89-7.09-2.89-2-5.33-9.11-2.82-9.11-2.82L1.4,192.1l.11,2.92c4.57,1.86,4.74,6.58,4.74,6.58.6,4.03,6.39,2.24,6.39,2.24l103.13,54.11,134.48-89.56,1.32-2.64Z"/>
            <path class="cls-20" d="m1.4,192.1l137.68-85.52s7.11-2.51,9.11,2.82c0,0,.86,5.15,7.09,2.89l96.29,53.46-135.66,89.6L13.96,201.2s-5.79,1.79-6.39-2.24c0,0-1.6-5-6.17-6.86Z"/>
            <path class="cls-15" d="m148.19,109.4L7.57,198.96c.6,4.03,6.39,2.24,6.39,2.24l141.32-88.91c-6.22,2.25-7.09-2.89-7.09-2.89Z"/>
            <g>
              <path class="cls-22" d="m252.68,165.71c-.01-.39-.23-.75-.57-.94l-10.04-5.58c-.35-.19-.78-.18-1.13.03-.34.21-.55.59-.53.99l.05,1.48.38,10.45.05,1.47c.01.4.25.77.61.95.17.09.36.13.55.12.2,0,.4-.07.57-.18l9.61-6.35c.33-.22.52-.58.5-.98,0-.27-.04-1.2-.05-1.47Z"/>
              <path class="cls-22" d="m128.1,247.61c-.18-.48-.66-.79-1.18-.73l-20.59,2.34c-.49.06-.88.42-.97.9-.07.36.09,1.29.05,1.47-.09.48.14.96.57,1.2l9.45,5.02c.18.1.37.14.56.13.2,0,.4-.07.58-.19l11.15-7.36c.43-.28.61-.83.43-1.31-.05-.15.09-1.1-.05-1.48Z"/>
              <g>
                <path class="cls-3" d="m252.11,164.77l-10.04-5.58c-.35-.19-.78-.18-1.13.03-.34.21-.55.59-.53.99l.43,11.92c.02.4.25.77.61.95.17.09.36.13.55.12.2,0,.4-.07.58-.18l9.61-6.35c.33-.22.52-.58.5-.97-.01-.39-.23-.75-.57-.94Z"/>
                <path class="cls-3" d="m126.92,246.88l-20.59,2.34c-.49.06-.88.42-.97.9-.09.48.14.96.57,1.19l9.45,5.02c.18.1.37.14.57.13.2,0,.4-.07.57-.18l11.15-7.36c.43-.29.61-.83.43-1.31-.18-.48-.66-.79-1.18-.73Z"/>
              </g>
            </g>
            <g>
              <path class="cls-22" d="m200.63,170.04c-.21-.11-.38-.24-.54-.37-1.02-.9-.8-2.31.56-3.53.2-.18.43-.36.68-.54.25-.17.53-.33.8-.47l-1.24-.65-46.09-24.24-1.24-.65c-.2.19-.43.37-.68.54-.25.17-.52.33-.8.47-1.86.96-4.16,1.26-5.79.78-.24-.07-.48-.16-.69-.27-.21-.11-.38-.24-.54-.38l-1.5,1.02-22.23,15.06-1.51,1.02c.24.08.48.16.69.27.21.11.38.23.53.37,1.02.9.8,2.31-.56,3.53-.21.18-.43.36-.68.54-.25.17-.52.33-.8.47l1.24.65,46.1,24.24,1.24.65c.2-.18.43-.37.68-.54.26-.17.52-.33.8-.47,1.86-.96,4.17-1.26,5.79-.78.25.08.48.16.69.27.21.11.38.24.54.37l1.51-1.02,22.23-15.05,1.51-1.02c-.25-.07-.48-.16-.69-.27Zm-32.81,16.84l-46.09-24.24c2.16-1.79,2.5-3.92.83-5.2l22.23-15.05c2.33.83,5.84.36,8.54-1.14l46.09,24.24c-2.15,1.79-2.5,3.92-.83,5.2l-22.23,15.05c-2.33-.83-5.83-.36-8.54,1.14Z"/>
              <g>
                <path class="cls-22" d="m146.28,161.32l-4.06,2.75-9.24-4.86.66-.45,1.24.45c.48.16.52.16,1.58-.56l12.1-8.19c1.06-.72,1.06-.74.73-1l-.91-.68.66-.45,5.33,2.8-.66.45-1.23-.45c-.48-.17-.52-.16-1.58.56l-13.25,8.97,3.19,1.68c.91.48.96.45,1.66.14l3.25-1.45.54.29Z"/>
                <path class="cls-22" d="m146.14,166.13l-3.75-1.97.66-.45,1.24.45c.5.18.52.16,1.86-.41l17.79-7.58,1.67.88-10.35,11.5c-.79.86-.78.9-.46,1.15l.9.68-.66.45-5.37-2.82.66-.45,1.24.45c.48.17.52.17,1.31-.7l2.19-2.37-4.49-2.36-3.69,1.58c-1.34.58-1.34.6-1,.87l.9.67-.66.45Zm9.55-1.88l5.84-6.36-9.88,4.23,4.05,2.13Z"/>
                <path class="cls-22" d="m175.69,166.15l-15.91,7.15-1.69-.89,11.38-10.95c.87-.82.87-.85.51-1.12l-.9-.67.66-.45,5.39,2.83-.66.45-1.24-.45q-.48-.17-1.37.67l-8.99,8.52,15.97-7.23,1.61.85-9.59,10.3,12.84-6.21c1.3-.62,1.26-.64.94-.89l-.9-.68.66-.45,3.77,1.98-.66.45-1.23-.45c-.5-.17-.54-.17-1.8.45l-16.78,8.11-1.71-.9,9.71-10.41Z"/>
              </g>
              <g>
                <path class="cls-3" d="m134.56,149.31c-.45-.19-.89-.38-1.33-.57l-6.15,4.17c.36.23.74.47,1.12.72l6.36-4.31Z"/>
                <path class="cls-3" d="m187.78,178l-5.19,3.51c.47.18.94.37,1.38.53l4.87-3.3c-.34-.24-.7-.5-1.06-.75Z"/>
              </g>
              <g>
                <path class="cls-3" d="m145.74,161.03l-2.81,1.25c.35.19.7.39,1.06.59l2.29-1.55-.54-.29Z"/>
                <path class="cls-3" d="m138.74,159.92l7.64-5.17c-.82-.4-1.63-.79-2.43-1.16l-7.45,5.04c.73.42,1.48.85,2.24,1.29Z"/>
                <path class="cls-3" d="m145.83,163.87c.25.14.5.27.75.4.1-.04.2-.09.32-.14l3.69-1.58,4.49,2.36-2.19,2.37c-.08.09-.15.16-.21.23.8.42,1.6.83,2.39,1.24.06-.06.12-.13.2-.22l5.73-6.37c-.51-.27-1.03-.55-1.55-.83-.24-.13-.49-.25-.73-.38l-3.01,3.28-4.05-2.13,5.09-2.18c-.25-.13-.5-.26-.75-.39l-9.84,4.19c-.12.05-.21.09-.31.13Z"/>
                <path class="cls-3" d="m162.06,172.27l9.53-4.28c-.23-.13-.46-.27-.7-.4l-8.03,3.64,5.39-5.11c-.76-.42-1.53-.85-2.31-1.28l-6.42,6.18c.85.42,1.7.84,2.53,1.25Z"/>
                <path class="cls-3" d="m167.52,174.91c.94.44,1.86.88,2.77,1.3l8.39-4.06c-.24-.14-.48-.29-.72-.44l-7.1,3.44,4.58-4.93c-.75-.44-1.52-.89-2.3-1.34l-5.62,6.03Z"/>
              </g>
            </g>
            <path class="cls-18" d="m1.4,192.1s-4,17.24,1.52,28.17l1.29-2.85s-3.99-9.12-.77-21.27l-2.04-4.06Z"/>
            <g>
              <polygon class="cls-21" points="41.39 257.2 35.91 245.66 31.02 250.37 29.92 220.02 40.28 226.85 41.39 257.2"/>
              <polygon class="cls-24" points="40.28 226.85 41.39 257.2 35.91 245.66 35.1 223.44 40.28 226.85"/>
            </g>
          </g>
        </g>
      </g>
    </g>
  </g>
</svg>