<?xml version="1.0" encoding="UTF-8"?>
<svg xmlns="http://www.w3.org/2000/svg" viewBox="0 0 500 500">
  <defs>
    <style>
      .cls-1, .cls-2 {
        fill: #fff;
      }

      .cls-3, .cls-4, .cls-5, .cls-2 {
        opacity: .42;
      }

      .cls-3, .cls-6, .cls-7, .cls-5 {
        fill: none;
      }

      .cls-3, .cls-6, .cls-5 {
        stroke-miterlimit: 10;
      }

      .cls-3, .cls-7 {
        stroke: #fff;
      }

      .cls-8 {
        fill: #c6606c;
      }

      .cls-4, .cls-9 {
        fill: #4570b4;
      }

      .cls-6 {
        stroke: #aa4451;
      }

      .cls-7 {
        stroke-linecap: round;
        stroke-linejoin: round;
      }

      .cls-10 {
        fill: #00496a;
      }

      .cls-5 {
        stroke: #4570b4;
      }

      .cls-11 {
        fill: #68a8de;
      }

      .cls-12 {
        fill: #375c93;
      }

      .cls-13 {
        fill: #8cc6e5;
      }

      .cls-14 {
        fill: #d4e7ff;
      }

      .cls-15 {
        fill: #ff6a76;
      }

      .cls-16 {
        fill: #d9d9d9;
      }

      .cls-17 {
        fill: #a6d6f7;
      }

      .cls-18 {
        fill: #ffa9b3;
      }
    </style>
  </defs>
  <g id="BACKGROUND">
    <rect class="cls-1" width="500" height="500"/>
  </g>
  <g id="OBJECT">
    <g>
      <path class="cls-14" d="m430.67,276.13c-4.42,95.58-89.45,122.79-195.36,124.83-161.5,3.12-180.3-48.19-180.3-143.87S90.22,62.62,183.57,69.91c44.35,3.46,94.69,76.97,132.38,101.36,52.06,33.69,118.04,33.06,114.71,104.86Z"/>
      <path class="cls-5" d="m52.53,316.16s33.64-14.68,49.1-62.53c15.47-47.86,43.5-88.16,96.63-90.86,53.12-2.71,110.58.62,129.57-27.9,18.98-28.52-21.59-29.17-22.16,20.87-.57,50.04,86.86,141.81,91.43,213.07,4.57,71.26-54.46,57.12-127.8,28.47-73.34-28.64-149.9,28.04-197.62,6.84-47.72-21.2-45.65-66.55-19.15-87.95Z"/>
      <circle class="cls-4" cx="59.67" cy="241.41" r="19.29"/>
      <circle class="cls-5" cx="59.67" cy="241.41" r="24.62" transform="translate(-153.23 112.9) rotate(-45)"/>
      <circle class="cls-4" cx="426.05" cy="253.63" r="22.5"/>
      <polygon class="cls-5" points="268.91 192.94 262.83 202.59 275.76 202.59 268.91 192.94"/>
      <polygon class="cls-4" points="183.25 103.15 175.14 116.03 192.41 116.03 183.25 103.15"/>
      <g>
        <circle class="cls-4" cx="244.06" cy="105.71" r="23.46"/>
        <path class="cls-1" d="m243.6,102.81l-1.32-2.52c-.85-1.62-.22-3.62,1.4-4.47h0c1.1-.58,1.53-1.94.95-3.05l-1.97-3.78c-.58-1.1-1.94-1.53-3.05-.95l-1.72.9c-1.62.85-2.94,2.17-3.78,3.79l-.5.97c-.87,1.67-.86,3.66.01,5.33l3.69,7.06,2.46,4.71,3.69,7.06c.87,1.67,2.5,2.81,4.37,3.05l1.08.14c1.81.24,3.65-.09,5.27-.94l1.72-.9c1.1-.58,1.53-1.94.95-3.05l-1.97-3.78c-.58-1.1-1.94-1.53-3.05-.95h0c-1.62.85-3.62.22-4.47-1.4l-1.32-2.52-2.46-4.71Z"/>
      </g>
      <path class="cls-5" d="m415.67,370.34c0,2.68-2.17,4.86-4.86,4.86s-4.86-2.17-4.86-4.86,2.17-4.86,4.86-4.86,4.86,2.17,4.86,4.86Z"/>
      <circle class="cls-2" cx="125.29" cy="104.46" r="8.98"/>
      <circle class="cls-5" cx="370.42" cy="229.23" r="8.98"/>
      <circle class="cls-4" cx="87.72" cy="280.61" r="8.75"/>
      <circle class="cls-3" cx="426.05" cy="253.63" r="15.52"/>
    </g>
    <g>
      <path class="cls-4" d="m412.86,106.62h-107.56c-4.6,0-8.32,3.73-8.32,8.32v64.97c0,4.6,3.73,8.32,8.32,8.32h68.6v16.38c0,2.74,3.2,4.23,5.3,2.47l22.39-18.85h11.27c4.6,0,8.32-3.73,8.32-8.32v-64.97c0-4.6-3.73-8.32-8.32-8.32Z"/>
      <g>
        <path class="cls-11" d="m440.1,114.72c0,9.71-2.79,18.76-7.6,26.36-.76,1.22-1.58,2.41-2.45,3.55-8.79,11.54-22.54,18.97-37.99,18.97-7.93,0-15.41-1.95-22-5.42-15.47-8.12-26.04-24.54-26.04-43.46,0-2.21.14-4.39.43-6.53,3.13-23.91,23.26-42.36,47.61-42.36,26.53,0,48.04,21.89,48.04,48.89Z"/>
        <path class="cls-8" d="m430.05,144.62c-8.79,11.54-22.54,18.97-37.99,18.97-7.93,0-15.41-1.95-22-5.42.9-2.25,3.66-8.22,8.55-11.56,6.1-4.18,24.64-6.69,37.5-5.59,7.59.64,11.78,2.33,13.94,3.6Z"/>
        <path class="cls-1" d="m370.42,89.92l.5,23.87s.76,24.39,20.6,23.96c19.85-.43,24.04-30.56,24.04-30.56l-3.12-18.28s-23.2-15.48-42.03,1.01Z"/>
        <path class="cls-1" d="m391.66,132.01s1.47,9.23-.75,12.25c-2.22,3.02,4.42,13.5,4.42,13.5l15.37-14.1s-1.02-10.34-.74-19.39l-18.29,7.73Z"/>
        <path class="cls-10" d="m370.54,95.4s5.71,1.82,11.82,1.28c6.11-.54,8.25-3,8.25-3,0,0,2.04.86,5.36.86s5.79-1.61,5.79-1.61c0,0-2.25,3.86-1.29,8.79.96,4.93,4.18,6.21,4.18,6.21,0,0,2.04-4.93,5.57-4.93s4.82,3.75,3.91,8.68c-.91,4.93-6.59,6.11-6.59,6.11l2.42,6.48s9.15-9.81,10.22-20.63c1.07-10.82-4.39-14.04-4.39-14.04,0,0,.46-8.04-10.27-10.82s-17.8-2.57-25.84,2.04c0,0-6.75-5.14-12.43-2.04s-4.07,9.75-1.29,11.46c0,0-5.46,1.39-4.29,8.14,1.18,6.75,9.05,6.22,9.05,6.22l-.19-9.22Z"/>
        <path class="cls-16" d="m391.53,137.75s14.43-3.82,15.85-13.47c0,0,3.58,13.99-15.85,18.74,0,0,.57-4.16,0-5.27Z"/>
      </g>
      <g>
        <circle class="cls-4" cx="443.64" cy="81.41" r="22.46" transform="translate(291.74 506.1) rotate(-80.72)"/>
        <path class="cls-1" d="m441.1,87.45l-.08-1.04c-.24-2.17.48-4.54,2.49-6.95,1.81-2.13,2.81-3.7,2.81-5.51,0-2.05-1.29-3.42-3.82-3.46-1.45,0-3.05.48-4.06,1.25l-.96-2.53c1.33-.96,3.62-1.61,5.75-1.61,4.62,0,6.71,2.85,6.71,5.91,0,2.73-1.53,4.7-3.46,6.99-1.77,2.09-2.41,3.86-2.29,5.91l.04,1.04h-3.13Zm-.88,5.63c0-1.49,1-2.53,2.41-2.53s2.37,1.04,2.37,2.53c0,1.41-.92,2.49-2.41,2.49-1.41,0-2.37-1.09-2.37-2.49Z"/>
      </g>
    </g>
    <g>
      <g>
        <g>
          <path class="cls-17" d="m405.44,345.5c-.07.23-.16.42-.27.57-1.9,2.75-3.9,5.42-6.01,8h0c-68.64,84.35-245.15,84.35-245.15,84.35v-100.67h251.17s.97,5.48.27,7.75Z"/>
          <path class="cls-13" d="m405.44,345.5c-.07.23-.16.42-.27.57-1.9,2.75-3.9,5.42-6.01,8h0l-245.15,27.9v-36.47h251.44Z"/>
          <path class="cls-15" d="m269.3,266.54l-12.15,12.88s-2.49-2.56-5.47-6.48c-1.42-1.88-2.95-4.07-4.36-6.44-1.85-3.1-3.51-6.5-4.46-9.91-3.2-11.45-1.89-35.6-1.89-35.6,0,0,5.18.56,6.95,2.53,9.97,11.1,21.38,43.02,21.38,43.02Z"/>
          <path class="cls-9" d="m223.62,308.62h-87l-7.95-66.9c-.91-7.66,4.43-14.63,11.94-15.61l5.23-.68,66.48-8.64,11.29,91.83Z"/>
          <path class="cls-15" d="m202.38,219s-28.31,9.1-29.85,11.45c-1.53,2.34,11.76,43.83,11.76,43.83l-2.56,34.34h57.65l2.91-32.77s6.17-6.77,6.55-17.96c.38-11.19-7.88-36.9-7.88-36.9l-20.11-2.64-18.47.65Z"/>
          <path class="cls-10" d="m210.48,154.55s-19.73-8.49-33.74,11.31c-14.01,19.8.5,50.92.5,50.92,0,0,35.75-4.67,45.64-5.62s11.9-.95,11.9-.95c0,0,5.1-31.27-5.78-42.77-10.88-11.5-18.51-12.9-18.51-12.9Z"/>
          <path class="cls-1" d="m217.83,231.77l-16.66-11.42s1.37-4.37,1.03-8.74c-.08-.97-.24-1.94-.52-2.86-.14-.46-.31-.91-.51-1.35l16.66-.83s.11,1.35.42,3.09c.25,1.36.62,2.96,1.18,4.35.4,1.03.9,1.94,1.52,2.57,2.55,2.59-3.12,15.19-3.12,15.19Z"/>
          <path class="cls-16" d="m219.43,214.01c-2.14.07-11.33.21-17.23-2.4-.08-.97-.24-1.94-.52-2.86,0,0,11.23,1.37,16.57.91.25,1.36.62,2.96,1.18,4.35Z"/>
          <path class="cls-1" d="m227.2,162.06l2.78,22.96s3.64,23.66-15.45,25.95c-19.09,2.3-25.51-19.77-25.51-19.77l-2.26-24.37s20.13-18.01,40.44-4.77Z"/>
          <path class="cls-10" d="m218.5,163.84s-2.5,6.14-10.71,10.5c-7.28,3.86-14.11,4.93-14.11,4.93,0,0-1.1,6.47-4.78,10.52,0,0-6.38-12.1-3.77-22.52,2.6-10.42,16.05-15.45,27.86-14.39,11.8,1.06,16.05,5.39,17.62,12.27s-1.05,16.18-1.05,16.18c0,0-2.5-15.35-11.04-17.49Z"/>
          <path class="cls-11" d="m186.76,184.73s-2.27-17.46,11.19-26.73c8.77-6.04,19.81-4.43,19.81-4.43,0,0-6.96-5.24-20.67.81-13.71,6.05-14.41,19.73-13.02,30.35h2.69Z"/>
          <path class="cls-12" d="m156.47,308.62h-19.85l-7.95-66.9c-.91-7.66,4.43-14.63,11.94-15.61l5.23-.68,10.61,83.19Z"/>
          <path class="cls-12" d="m205.38,206.77c-9.11,0-15.87-6.34-16.17-6.63l1.22-1.33c.07.07,7.46,6.97,16.7,6.05l.17,1.81c-.65.07-1.3.1-1.93.1Z"/>
          <path class="cls-11" d="m431.08,346.07H158.11c-7.3,0-14.26-3.01-19.11-8.28l-14.99-16.26c-5.82-6.31-1.19-16.3,7.55-16.3h266.48c9.21,0,18.06,3.46,24.68,9.65l15.39,14.37c6.55,6.11,2.07,16.83-7.03,16.83Z"/>
          <path class="cls-1" d="m306.6,224.84c-.49.27-1.26.72-2.1,1.22l-.16-.26c2.5-1.59,6.19-4.08,5.94-4.68-.37-.91-2.25-.44-3.64.32-.8.44-2.26,1.31-3.67,2.16l-.1-.16c2.48-1.57,6.61-4.3,6.34-4.94-.37-.91-2.25-.44-3.64.32-.88.48-2.55,1.48-4.08,2.4l-.12-.19c2.46-1.59,5.66-3.79,5.43-4.35-.38-.91-2.25-.44-3.64.32-1.88,1.02-7.33,4.39-7.33,4.39l-3.97,1.45c.86-1.39,3.27-6.54,2.14-6.54s-4.23,3.59-5.52,7.29c-.96,2.77-1.08,5.24-1.08,6.3l-34.81,44.23s.82,1.29,2.07,3.02c3.61,4.99,12.02,6.09,16.88,2.3,3.83-3,6.86-6.96,9.83-11.01,5.59-7.62,13.92-27.85,15.87-32.69l7.88-7.38c2.16-1.4,4.91-3.29,4.71-3.79-.33-.8-1.99-.38-3.22.28Z"/>
          <path class="cls-10" d="m215.03,315.99s4.07,3,5.68,7.07c1.61,4.07-8.68,6.69-25.85.86-12.49-4.24,8.6-17.26,20.17-7.93Z"/>
          <path class="cls-10" d="m208.56,207.87h-2.3c-.82,0-1.49-.68-1.49-1.51v-1.41c0-.84.67-1.51,1.49-1.51h2.3c.82,0,1.49.68,1.49,1.51v1.41c0,.84-.67,1.51-1.49,1.51Z"/>
          <path class="cls-9" d="m196.6,189.91c1.27,6.36-2.04,12.42-7.4,13.53-5.36,1.11-10.73-3.15-12.01-9.51-1.27-6.36,2.04-12.42,7.4-13.53,5.36-1.11,10.73,3.15,12.01,9.51Z"/>
          <path class="cls-11" d="m191.2,191.03c.75,3.75-1.2,7.33-4.36,7.98-3.16.65-6.33-1.86-7.08-5.61-.75-3.75,1.2-7.33,4.36-7.98,3.16-.65,6.33,1.86,7.08,5.61Z"/>
          <path class="cls-15" d="m177.2,227.94s-4.86.73-6.84,3.87c-8.46,13.46-24.92,54.63-24.92,54.63l15.88,7.02s20.88-24.19,22.8-35.7c1.92-11.51-6.92-29.82-6.92-29.82Z"/>
          <path class="cls-1" d="m159.82,289.95l32.59,21.2-4.6,10.21s-29.33-10.54-38.35-17.36c-9.01-6.83-4.03-17.56-4.03-17.56,0,0,4.98-.59,14.38,3.51Z"/>
          <path class="cls-1" d="m191.45,310.83s10.99-.52,14.95-.52,10.86,6.5,10.1,8.58c-.77,2.08-8.69-4.29-8.69-4.29l-.45.85s7.03,4.29,7.41,5.92c.38,1.63-1.21,1.37-3.51.39-2.3-.98-5.75-3.19-5.75-3.19l-.38.46s6.65,4.1,6.65,5.59-4.79-.2-8.31-2.54l-.45.72s4.35,2.21,4.67,3.64c.32,1.43-2.05.85-4.67-.39-2.62-1.24-5.05-1.37-8.44-1.89-3.39-.52-7.41-3.03-7.41-3.03l4.27-10.31Z"/>
          <path class="cls-9" d="m393.53,251.36l-15.63,78.39h-115.8l15.54-77.94c.33-1.65,1.75-2.83,3.4-2.83h110.58c1.23,0,2.16,1.15,1.91,2.38Z"/>
          <path class="cls-10" d="m262.09,329.75l-31.81-10.35c-1.12-.37-1.88-1.41-1.88-2.59h0c0-1.51,1.22-2.73,2.73-2.73h34.1l-3.13,15.67Z"/>
          <path class="cls-8" d="m178.61,231.12s7.12,20.14,2.81,33.97c0,0,14.56-16.18-2.81-33.97Z"/>
          <path class="cls-8" d="m251.68,272.94c-1.42-1.88-2.95-4.07-4.36-6.44,2.94-11.55-3.9-37.27-3.9-37.27,14.99,19.11,10.81,36.86,8.26,43.71Z"/>
          <polygon class="cls-12" points="284.6 253.63 377.89 329.75 271.53 329.75 284.6 253.63"/>
          <circle class="cls-17" cx="337.13" cy="293.52" r="9.3" transform="translate(-86.33 150.37) rotate(-22.37)"/>
          <path class="cls-18" d="m202.09,215.75l15.74,16.01s-2.73,3.86-7.27,3.76c-4.54-.11-7.1-5.88-8.38-8.89-1.29-3.01-3.91-6.29-3.91-6.29l3.83-4.59Z"/>
          <path class="cls-18" d="m217.83,231.77s4.06,2.47,8.02.75c3.96-1.71,2.89-4.33,1.5-7.1-1.39-2.76-2.89-7.69-2.89-7.69l-4.52-2.6s.8,10.53-2.11,16.64Z"/>
          <path class="cls-8" d="m242.1,262.7l-39.66,3.84s8.89,6.38,22.58,4.45c13.69-1.93,17.08-8.29,17.08-8.29Z"/>
        </g>
        <g>
          <path class="cls-4" d="m153.45,133.74h-71.72c-4.57,0-8.28,3.71-8.28,8.28v19.01c0,4.57,3.71,8.28,8.28,8.28h60.42l19.58,11.32v-38.61c0-4.57-3.71-8.28-8.28-8.28Z"/>
          <line class="cls-7" x1="78.96" y1="142.34" x2="153.67" y2="142.34"/>
          <line class="cls-7" x1="78.96" y1="151.46" x2="153.67" y2="151.46"/>
          <line class="cls-7" x1="78.96" y1="160.58" x2="153.67" y2="160.58"/>
        </g>
      </g>
      <g>
        <g>
          <path class="cls-8" d="m157.55,354.79c1.88-15.52-10.37-13.19-18.75-5-8.38,8.19-16.59,3.62-7.3-11.68s16.09-20,14.81-27.7-8-4.33-19.62,2.07c-11.62,6.4-.64-10.32-1.52-26.18-.88-15.86-16.63-7.94-17.95,5.42-1.32,13.35,4.64,28.3-3.01,25.34-7.64-2.97-12.27-20.7-19.22-12.33s19.62,36.76,18.73,45.33c-.89,8.57-20.01-17.55-25.5-8.95-5.49,8.6,18.27,66.02,38.84,64.41,26.13-2.04,38.61-35.22,40.49-50.73Z"/>
          <path class="cls-6" d="m115.21,293.59s-3.28,17.96-1.97,40.73,4.29,80.08,4.29,80.08"/>
          <path class="cls-6" d="m92.87,316.16s15.1,17.92,20.58,21.87c0,0,19.5-18.79,23.22-21.87"/>
          <path class="cls-6" d="m83.95,352.04s22.7,22.84,31.58,24.35l33.4-22.39"/>
          <path class="cls-15" d="m108.14,396.71s9.84-21.76,4.54-33.45c-5.3-11.69-12.9-4.83-15.29,4.49-2.39,9.32-10.1,9.61-10.1-5.08,0-14.69,2.77-20.9-1.42-25.75s-7.46.37-12.89,9.82-4.85-6.97-12.23-17.73c-7.38-10.76-15.05,1.52-10.29,11.46,4.77,9.93,15.33,17.88,8.7,19.06-6.63,1.18-17.44-9.3-18.75-.46-1.31,8.84,29.45,17.43,32.47,23.82,3.03,6.4-21.52-3.78-21.71,4.6s28.38,23.08,41.32,20.89c12.93-2.19,15.65-11.68,15.65-11.68Z"/>
          <path class="cls-6" d="m56.3,335.54s37.45,60.17,45.33,78.86"/>
          <polyline class="cls-6" points="50.17 364.1 76.51 368.8 81.92 346.15"/>
          <polyline class="cls-6" points="64.09 391.13 92.23 396 103.82 370.45"/>
        </g>
        <g>
          <polygon class="cls-12" points="91.41 414.4 139.01 414.4 134.92 438.42 96.38 438.42 91.41 414.4"/>
          <rect class="cls-9" x="88.05" y="412.06" width="54.75" height="8.98" rx="3.21" ry="3.21"/>
        </g>
      </g>
      <g>
        <circle class="cls-4" cx="311.62" cy="408.01" r="33.04"/>
        <path class="cls-1" d="m332.39,395.81h-41.53c-1.14,0-2.06.92-2.06,2.06v22.88c0,1.14.92,2.06,2.06,2.06h41.53c1.14,0,2.06-.92,2.06-2.06v-22.88c0-1.14-.92-2.06-2.06-2.06Zm.62,3.3l-19.5,12.75c-.17.11-.36.16-.55.16-.17,0-.34-.04-.49-.13l-22.71-12.75c-.48-.27-.65-.88-.38-1.36.27-.48.88-.65,1.36-.38l22.19,12.45,18.99-12.42c.46-.3,1.08-.17,1.38.29.3.46.17,1.08-.29,1.38Z"/>
        <circle class="cls-18" cx="337.13" cy="392.2" r="12.25"/>
      </g>
    </g>
  </g>
</svg>