<?xml version="1.0" encoding="UTF-8"?>
<svg id="_Слой_1" data-name="Слой 1" xmlns="http://www.w3.org/2000/svg" viewBox="0 0 263.64 263.6">
  <defs>
    <style>
      .cls-1 {
        fill: #4e0110;
      }
    </style>
  </defs>
  <path class="cls-1" d="m258.71,0C173.61,0,88.52,0,3.43.03c-1.14,0-2.29.43-3.43.66.02,28.93.05,57.86.06,86.79,0,58.48,0,116.96,0,175.45.21.21.42.42.63.63,85.93,0,171.85,0,257.78,0,1.25,0,2.49.04,3.74.06.48-1.4,1.38-2.81,1.38-4.21.07-84.83.06-169.66.06-254.49,0-4.52-.39-4.9-4.93-4.9ZM55.64,42.6c8.07.15,8.07.01,8.07,8.06,0,15.85,0,31.69,0,47.54.21.21.42.42.63.63,10.82,0,21.63,0,32.45,0,.21-.21.42-.42.63-.63,0-17.21.07-34.43-.07-51.64-.03-3.14.91-4.02,4-3.96,8.04.15,8.05.01,8.05,8.08,0,15.84,0,31.68,0,47.52.21.21.42.42.63.63q9.11-.01,9.11,9.19c0,4.24-.08,8.48.03,12.72.05,2.1-.73,2.76-2.82,2.84-8.45.34-8.45.4-8.45-8.03,0-2.12,0-4.24,0-6.36-.21-.21-.42-.42-.63-.63-17.22,0-34.44-.08-51.66.07-3.17.03-3.96-.97-3.94-4.02.13-19.34.13-38.68,0-58.02-.02-3.11.86-4.05,3.98-3.99Zm183.24,196.17c-1.15.27-2.3.78-3.45.78-63.11.04-126.23.03-189.34.03-.85,0-1.7-.1-2.55-.18-.06,0-.14-.19-.14-.28,0-.12.1-.23.15-.34.53-.66,1.01-1.38,1.61-1.98,63.86-63.86,127.72-127.72,191.59-191.57.52-.52,1.07-1.01,1.87-1.76.14.65.31,1.06.31,1.48,0,64.61-.02,129.22-.04,193.83Z"/>
  <path class="cls-1" d="m153.18,226.33v-79.08h62.01c0,3.77,0,7.7,0,11.62-15.84,0-31.67,0-47.73,0v19.5c.75.27,1.5.78,2.25.79,7.21.03,14.41-.03,21.62-.07,6.88.14,13.45,1.09,19.55,4.87,5.72,3.55,10.83,12.35,8.87,21.48-.63,2.91-1.01,6.05-2.4,8.6-3.93,7.2-10.81,10.45-18.43,12.23-2.7.63-5.58.5-8.38.71-1.3-.21-2.61-.59-3.91-.6-11.15-.06-22.3-.05-33.45-.06Zm14.3-11.24c.62.26,1.25.75,1.87.75,6.57.02,13.14-.04,19.72-.08,3.16-.71,6.52-.96,9.44-2.22,4.99-2.15,7.51-6.95,6.95-12.15-.56-5.19-3.29-8.53-8.57-9.56-2.38-.46-4.74-1.02-7.11-1.54-6.95-.2-13.91-.42-20.86-.57-.5-.01-1.02.5-1.53.77.03,8.2.06,16.4.09,24.6Z"/>
</svg>