<?xml version="1.0" encoding="utf-8"?>
<!-- Generator: Adobe Illustrator 27.2.0, SVG Export Plug-In . SVG Version: 6.00 Build 0)  -->
<svg version="1.1" id="Слой_1" xmlns="http://www.w3.org/2000/svg" xmlns:xlink="http://www.w3.org/1999/xlink" x="0px" y="0px"
	 viewBox="0 0 361 400" style="enable-background:new 0 0 361 400;" xml:space="preserve">
<style type="text/css">
	.st0{fill:none;}
	.st1{fill:#E3E36A;}
</style>
<g id="background">
	<rect y="0" class="st0" width="361" height="400"/>
</g>
<g id="objects">
	<g>
		<path class="st1" d="M266.5,183.3c-1.5,1.9-3,3.8-4.5,5.7v91.6c0,7.8-6.4,14.2-14.2,14.2H106.5c-7.8,0-14.2-6.4-14.2-14.2V139.3
			c0-7.9,6.4-14.2,14.2-14.2h133.4c5.3-6.4,10.3-12.2,15.5-18.1l4.4-5.1l2.6-2.8c-4.5-1.7-9.4-2.6-14.6-2.6H106.5
			c-23.5,0-42.7,19.1-42.7,42.7v141.3c0,23.5,19.1,42.7,42.7,42.7h141.3c23.5,0,42.7-19.1,42.7-42.7V154.4
			C283.1,163,275.3,172.4,266.5,183.3L266.5,183.3z"/>
		<path class="st1" d="M322.6,83.9c-4.1-6.9-13-9.2-20-5.1c-3.9,2.3-7.5,4.9-11,7.7c-1.8,1.4-3.4,2.8-5,4.3c-1.6,1.5-3.2,3-4.8,4.5
			c-3.2,3-6.1,6.3-9.1,9.5l-4.4,4.8l-4.3,4.9c-5.8,6.5-11.4,13.2-17,19.9l-8.3,10.1l-8.1,10.3c-10.6,13.8-21,27.7-30.9,41.9
			c-5,7.1-9.9,14.2-14.7,21.4c-1.8,2.7-3.5,5.4-5.3,8.1c-3.8-3.2-7.2-6.6-10.3-10.6c-6.3-7.9-11.1-17.4-15.2-27.9l-0.1-0.2
			c-2.7-6.9-10.4-10.6-17.5-8.3c-7.5,2.4-11.6,10.4-9.3,17.9c2,6.3,4.3,12.5,7.1,18.7c2.9,6.2,6.3,12.3,10.4,18.1
			c4.1,5.8,9,11.2,14.3,16c5.3,4.8,11,9,16.9,12.6c7.1,4.4,16.6,2.4,21.3-4.6l0.3-0.4c4.7-7,9.6-13.9,14.5-20.7s9.8-13.7,14.8-20.5
			c10-13.6,20.2-27,30.7-40.1c10.5-13.1,21.2-26,32.3-38.5l4.2-4.7l4.2-4.6c2.8-3,5.6-6.1,8.4-9.2c2.8-3.1,5.4-6.3,8-9.6
			c2.6-3.2,5.1-6.6,7.4-10.3l0.3-0.5C325.2,94.5,325.5,88.7,322.6,83.9L322.6,83.9z"/>
	</g>
</g>
</svg>
