<?xml version="1.0" encoding="utf-8"?>
<!-- Generator: Adobe Illustrator 27.2.0, SVG Export Plug-In . SVG Version: 6.00 Build 0)  -->
<svg version="1.1" id="Слой_1" xmlns="http://www.w3.org/2000/svg" xmlns:xlink="http://www.w3.org/1999/xlink" x="0px" y="0px"
	 viewBox="0 0 460.4 460.5" style="enable-background:new 0 0 460.4 460.5;" xml:space="preserve">
<style type="text/css">
	.st0{fill:#92E3A9;}
	.st1{opacity:0.7;fill:#FFFFFF;enable-background:new    ;}
	.st2{fill:none;stroke:#263238;stroke-width:2;stroke-miterlimit:10;}
	.st3{fill:#92E3A9;stroke:#263238;stroke-miterlimit:10;}
	.st4{fill:none;stroke:#263238;stroke-width:0.5;stroke-miterlimit:10;}
	.st5{fill:#263238;stroke:#263238;stroke-miterlimit:10;}
	.st6{fill:none;stroke:#263238;stroke-miterlimit:10;}
	.st7{fill:#FFFFFF;stroke:#263238;stroke-miterlimit:10;}
	.st8{fill:#263238;}
	.st9{fill:#CCCCCC;}
</style>
<g id="Background_Simple">
	<g>
		<path class="st0" d="M422.4,298.7c0,0,51.1-57.4,34.9-157.3C441,41.4,357.6,4.6,302.2,23.9s-67.8,52.7-113,71.8s-131.1,6-174,70.3
			s11.9,170.8,81.7,237.6S344.8,428.6,422.4,298.7L422.4,298.7z"/>
		<path class="st1" d="M422.4,298.7c0,0,51.1-57.4,34.9-157.3C441,41.4,357.6,4.6,302.2,23.9s-67.8,52.7-113,71.8s-131.1,6-174,70.3
			s11.9,170.8,81.7,237.6S344.8,428.6,422.4,298.7L422.4,298.7z"/>
	</g>
</g>
<g id="Plant">
	<g>
		<g>
			<line class="st2" x1="108.7" y1="308" x2="124.6" y2="459.8"/>
			<g>
				<g>
					<line class="st2" x1="121.7" y1="428.7" x2="114.7" y2="421.2"/>
					<path class="st3" d="M116.8,423.5c0,0,0.2-3.3-2.8-6c-1.8-1.6-11.3-5.6-12.2-2.3C100.8,418.8,110.5,426,116.8,423.5
						L116.8,423.5z"/>
					<line class="st4" x1="116.8" y1="423.5" x2="107.7" y2="417.8"/>
				</g>
				<g>
					<line class="st2" x1="123.5" y1="445.6" x2="116.4" y2="438.2"/>
					<path class="st3" d="M118.6,440.4c0,0,0.2-3.3-2.8-6c-1.8-1.6-11.3-5.6-12.2-2.3C102.5,435.8,112.3,443,118.6,440.4
						L118.6,440.4z"/>
					<line class="st4" x1="118.6" y1="440.4" x2="109.5" y2="434.8"/>
				</g>
				<g>
					<line class="st2" x1="117.4" y1="387.3" x2="110.3" y2="379.8"/>
					<path class="st3" d="M112.5,382c0,0,0.2-3.3-2.8-6c-1.8-1.6-11.3-5.6-12.2-2.3C96.5,377.4,106.2,384.6,112.5,382L112.5,382z"/>
					<line class="st4" x1="112.5" y1="382" x2="103.4" y2="376.4"/>
				</g>
				<g>
					<line class="st2" x1="119.2" y1="404.2" x2="112.1" y2="396.8"/>
					<path class="st3" d="M114.3,399c0,0,0.2-3.3-2.8-6c-1.8-1.6-11.3-5.6-12.2-2.3C98.2,394.4,108,401.6,114.3,399L114.3,399z"/>
					<line class="st4" x1="114.3" y1="399" x2="105.2" y2="393.4"/>
				</g>
				<g>
					<line class="st2" x1="114.5" y1="359.7" x2="107.5" y2="352.2"/>
					<path class="st3" d="M109.6,354.5c0,0,0.2-3.3-2.8-6c-1.8-1.6-11.3-5.6-12.2-2.3C93.6,349.9,103.3,357.1,109.6,354.5
						L109.6,354.5z"/>
					<line class="st4" x1="109.6" y1="354.5" x2="100.5" y2="348.8"/>
				</g>
				<g>
					<line class="st2" x1="111.6" y1="332" x2="104.6" y2="324.6"/>
					<path class="st3" d="M106.7,326.8c0,0,0.2-3.3-2.8-6c-1.8-1.6-11.3-5.6-12.2-2.3C90.7,322.2,100.5,329.4,106.7,326.8
						L106.7,326.8z"/>
					<line class="st4" x1="106.7" y1="326.8" x2="97.7" y2="321.1"/>
				</g>
				<g>
					<line class="st2" x1="120.5" y1="418.6" x2="125.9" y2="409.9"/>
					<path class="st3" d="M124.3,412.5c0,0-0.9-3.2,1.5-6.4c1.4-2,9.9-7.9,11.5-4.8C139,404.7,130.9,413.7,124.3,412.5z"/>
					<line class="st4" x1="124.3" y1="412.5" x2="132.4" y2="404.7"/>
				</g>
				<g>
					<line class="st2" x1="115.9" y1="374" x2="121.2" y2="365.2"/>
					<path class="st3" d="M119.6,367.9c0,0-0.9-3.2,1.5-6.4c1.4-2,9.9-7.9,11.5-4.8C134.4,360,126.3,369.1,119.6,367.9z"/>
					<line class="st4" x1="119.6" y1="367.9" x2="127.8" y2="360"/>
				</g>
				<g>
					<line class="st2" x1="113.8" y1="354.4" x2="119.2" y2="345.6"/>
					<path class="st3" d="M117.6,348.2c0,0-0.9-3.2,1.5-6.4c1.4-2,9.9-7.9,11.5-4.8C132.3,340.4,124.3,349.5,117.6,348.2z"/>
					<line class="st4" x1="117.6" y1="348.2" x2="125.7" y2="340.4"/>
				</g>
				<g>
					<line class="st2" x1="110.8" y1="325.6" x2="116.2" y2="316.8"/>
					<path class="st3" d="M114.6,319.5c0,0-0.9-3.2,1.5-6.4c1.4-2,9.9-7.9,11.5-4.8C129.3,311.6,121.2,320.7,114.6,319.5z"/>
					<line class="st4" x1="114.6" y1="319.5" x2="122.7" y2="311.6"/>
					<path class="st3" d="M108.5,307.2c0,0-0.9-3.2,1.5-6.4c1.4-2,9.9-7.9,11.5-4.8C123.3,299.4,115.2,308.4,108.5,307.2z"/>
					<line class="st4" x1="108.5" y1="307.2" x2="116.7" y2="299.4"/>
					<path class="st3" d="M109,307.5c0,0-3.3,0.5-6.2-2.2c-1.8-1.6-6.8-10.7-3.5-12C102.8,292,110.9,301,109,307.5z"/>
					<line class="st4" x1="109" y1="307.5" x2="102.1" y2="298.6"/>
				</g>
			</g>
		</g>
		<g>
			<line class="st2" x1="149.7" y1="328.6" x2="136.6" y2="459.8"/>
			<g>
				<g>
					<line class="st2" x1="137.7" y1="449.3" x2="132.3" y2="440.6"/>
					<path class="st3" d="M133.9,443.2c0,0,0.9-3.2-1.5-6.4c-1.4-2-9.9-7.9-11.5-4.8C119.2,435.4,127.3,444.4,133.9,443.2
						L133.9,443.2z"/>
					<line class="st4" x1="133.9" y1="443.2" x2="126.2" y2="435.8"/>
				</g>
				<g>
					<line class="st2" x1="142" y1="407.9" x2="136.6" y2="399.2"/>
					<path class="st3" d="M138.2,401.8c0,0,0.9-3.2-1.5-6.4c-1.4-2-9.9-7.9-11.5-4.8C123.5,394,131.6,403,138.2,401.8L138.2,401.8z"
						/>
					<line class="st4" x1="138.2" y1="401.8" x2="130.5" y2="394.4"/>
				</g>
				<g>
					<line class="st2" x1="140.2" y1="424.9" x2="134.8" y2="416.1"/>
					<path class="st3" d="M136.5,418.8c0,0,0.9-3.2-1.5-6.4c-1.4-2-9.9-7.9-11.5-4.8C121.7,410.9,129.8,420,136.5,418.8L136.5,418.8
						z"/>
					<line class="st4" x1="136.5" y1="418.8" x2="128.8" y2="411.4"/>
				</g>
				<g>
					<line class="st2" x1="144.8" y1="380.4" x2="139.5" y2="371.6"/>
					<path class="st3" d="M141.1,374.2c0,0,0.9-3.2-1.5-6.4c-1.4-2-9.9-7.9-11.5-4.8C126.3,366.4,134.4,375.4,141.1,374.2
						L141.1,374.2z"/>
					<line class="st4" x1="141.1" y1="374.2" x2="133.4" y2="366.8"/>
				</g>
				<g>
					<line class="st2" x1="147.7" y1="352.7" x2="142.3" y2="343.9"/>
					<path class="st3" d="M144,346.5c0,0,0.9-3.2-1.5-6.4c-1.4-2-9.9-7.9-11.5-4.8C129.2,338.7,137.3,347.8,144,346.5L144,346.5z"/>
					<line class="st4" x1="144" y1="346.5" x2="136.3" y2="339.1"/>
				</g>
				<g>
					<line class="st2" x1="138.6" y1="439.2" x2="145.6" y2="431.8"/>
					<path class="st3" d="M143.5,434c0,0-0.2-3.3,2.8-6c1.8-1.6,11.3-5.6,12.2-2.3C159.6,429.4,149.8,436.6,143.5,434z"/>
					<line class="st4" x1="143.5" y1="434" x2="153.1" y2="428.1"/>
				</g>
				<g>
					<line class="st2" x1="143.2" y1="394.6" x2="150.3" y2="387.1"/>
					<path class="st3" d="M148.1,389.4c0,0-0.2-3.3,2.8-6c1.8-1.6,11.3-5.6,12.2-2.3C164.2,384.8,154.4,391.9,148.1,389.4z"/>
					<line class="st4" x1="148.1" y1="389.4" x2="157.7" y2="383.4"/>
				</g>
				<g>
					<line class="st2" x1="145.2" y1="375" x2="152.3" y2="367.5"/>
					<path class="st3" d="M150.2,369.8c0,0-0.2-3.3,2.8-6c1.8-1.6,11.3-5.6,12.2-2.3C166.2,365.1,156.5,372.3,150.2,369.8z"/>
					<line class="st4" x1="150.2" y1="369.8" x2="159.8" y2="363.8"/>
				</g>
				<g>
					<line class="st2" x1="148.2" y1="346.2" x2="155.3" y2="338.7"/>
					<path class="st3" d="M153.1,341c0,0-0.2-3.3,2.8-6c1.8-1.6,11.3-5.6,12.2-2.3C169.2,336.4,159.4,343.5,153.1,341z"/>
					<line class="st4" x1="153.1" y1="341" x2="162.8" y2="335"/>
					<path class="st3" d="M149.8,327.7c0,0-0.2-3.3,2.8-6c1.8-1.6,11.3-5.6,12.2-2.3C165.8,323.1,156.1,330.3,149.8,327.7z"/>
					<line class="st4" x1="149.8" y1="327.7" x2="159.4" y2="321.8"/>
					<path class="st3" d="M150.2,328.2c0,0-3.3-0.1-5.7-3.4c-1.4-2-4.4-11.9-1-12.4C147.3,311.7,153.4,322.2,150.2,328.2
						L150.2,328.2z"/>
					<line class="st4" x1="150.2" y1="328.2" x2="145.2" y2="318"/>
				</g>
			</g>
		</g>
		<line class="st2" x1="132" y1="267.8" x2="131" y2="460"/>
		<g>
			<g>
				<line class="st2" x1="132.1" y1="428.1" x2="125.9" y2="420"/>
				<path class="st3" d="M127.8,422.4c0,0,0.5-3.3-2.2-6.2c-1.6-1.8-10.7-6.8-11.9-3.5C112.3,416.2,121.3,424.3,127.8,422.4z"/>
				<line class="st4" x1="127.8" y1="422.4" x2="119.4" y2="415.9"/>
			</g>
			<g>
				<line class="st2" x1="132.1" y1="392.7" x2="125.9" y2="384.5"/>
				<path class="st3" d="M127.8,387c0,0,0.5-3.3-2.2-6.2c-1.6-1.8-10.7-6.8-11.9-3.5C112.3,380.7,121.3,388.9,127.8,387z"/>
				<line class="st4" x1="127.8" y1="387" x2="119.4" y2="380.4"/>
			</g>
			<g>
				<line class="st2" x1="132.1" y1="351" x2="125.9" y2="342.9"/>
				<path class="st3" d="M127.8,345.3c0,0,0.5-3.3-2.2-6.2c-1.6-1.8-10.7-6.8-11.9-3.5C112.3,339.1,121.3,347.2,127.8,345.3z"/>
				<line class="st4" x1="127.8" y1="345.3" x2="119.4" y2="338.8"/>
			</g>
			<g>
				<line class="st2" x1="132.1" y1="323.3" x2="125.9" y2="315.2"/>
				<path class="st3" d="M127.8,317.6c0,0,0.5-3.3-2.2-6.2c-1.6-1.8-10.7-6.8-11.9-3.5C112.3,311.4,121.3,319.5,127.8,317.6z"/>
				<line class="st4" x1="127.8" y1="317.6" x2="119.4" y2="311"/>
			</g>
			<g>
				<line class="st2" x1="132.1" y1="295.5" x2="125.9" y2="287.3"/>
				<path class="st3" d="M127.8,289.8c0,0,0.5-3.3-2.2-6.2c-1.6-1.8-10.7-6.8-11.9-3.5C112.3,283.5,121.3,291.7,127.8,289.8z"/>
				<line class="st4" x1="127.8" y1="289.8" x2="119.4" y2="283.2"/>
			</g>
			<g>
				<line class="st2" x1="132" y1="439" x2="138.2" y2="430.8"/>
				<path class="st3" d="M136.4,433.2c0,0-0.5-3.3,2.2-6.2c1.6-1.8,10.7-6.8,11.9-3.5C151.8,427,142.9,435.1,136.4,433.2z"/>
				<line class="st4" x1="136.4" y1="433.2" x2="145.3" y2="426.3"/>
			</g>
			<g>
				<line class="st2" x1="132" y1="382.6" x2="138.2" y2="374.4"/>
				<path class="st3" d="M136.4,376.9c0,0-0.5-3.3,2.2-6.2c1.6-1.8,10.7-6.8,11.9-3.5C151.8,370.6,142.9,378.8,136.4,376.9z"/>
				<line class="st4" x1="136.4" y1="376.9" x2="145.3" y2="369.9"/>
			</g>
			<g>
				<line class="st2" x1="132" y1="354.7" x2="138.2" y2="346.6"/>
				<path class="st3" d="M136.4,349c0,0-0.5-3.3,2.2-6.2c1.6-1.8,10.7-6.8,11.9-3.5C151.8,342.8,142.9,350.9,136.4,349z"/>
				<line class="st4" x1="136.4" y1="349" x2="145.3" y2="342.1"/>
			</g>
			<g>
				<line class="st2" x1="132" y1="317.9" x2="138.2" y2="309.8"/>
				<path class="st3" d="M136.4,312.2c0,0-0.5-3.3,2.2-6.2c1.6-1.8,10.7-6.8,11.9-3.5C151.8,306,142.9,314.1,136.4,312.2z"/>
				<line class="st4" x1="136.4" y1="312.2" x2="145.3" y2="305.3"/>
			</g>
			<g>
				<line class="st2" x1="132" y1="289" x2="138.2" y2="280.9"/>
				<path class="st3" d="M136.4,283.3c0,0-0.5-3.3,2.2-6.2c1.6-1.8,10.7-6.8,11.9-3.5C151.8,277.1,142.9,285.2,136.4,283.3z"/>
				<line class="st4" x1="136.4" y1="283.3" x2="145.3" y2="276.4"/>
				<path class="st3" d="M131.6,270.5c0,0-0.5-3.3,2.2-6.2c1.6-1.8,10.7-6.8,11.9-3.5C147.1,264.2,138.1,272.4,131.6,270.5z"/>
				<line class="st4" x1="131.6" y1="270.5" x2="140.6" y2="263.6"/>
				<path class="st3" d="M132.1,270.9c0,0-3.3,0.2-6-2.8c-1.6-1.8-5.6-11.4-2.3-12.3C127.5,254.8,134.6,264.6,132.1,270.9z"/>
				<line class="st4" x1="132.1" y1="270.9" x2="126.1" y2="261.2"/>
			</g>
		</g>
	</g>
</g>
<g id="Character">
	<g>
		<polygon class="st5" points="386,460 380.2,393.4 243.4,393.4 235.9,460 		"/>
		<path class="st3" d="M302.2,191.4c0,0-40,11-57.5,24.2s-29.6,26.8-26.8,52.4c2.8,25.6,21.1,95.8,21.1,95.8s-2.5,28.5-2.5,30.2
			s-0.3,6.5,5.9,6.8s80.6,3.4,97.2,3.7s38.6-1.4,41.1-3.4s4-5.1,4.2-8.5c0.3-3.4,3.1-44.8,3.1-44.8l0.3-18.6
			c0,0,18.3-60.9,19.5-80.6s-6.2-26.2-14.4-32.4c-8.2-6.2-33.6-16.7-47.4-20.9C332.4,191.2,302.2,191.4,302.2,191.4L302.2,191.4z"/>
		<path class="st6" d="M312.1,286c-2,27.5-5.6,78.1-5.3,86.7c0.4,12-4.4,15.5-4.4,20"/>
		<path class="st6" d="M313.4,268.3c0,0-0.4,4.7-0.9,12.1"/>
		<polygon class="st5" points="331.3,303.6 333.8,333.8 348.2,332.8 		"/>
		<path class="st5" d="M317.7,356.2c0,0,35-5.5,37.6-4.9s20.5,9.3,23.2,9.8c2.6,0.6,4.9,1.7,4.9,1.7l3.9,3.3l-1.3-9.9
			c0,0-5.2-6.4-16.8-11c-11.6-4.6-17.4-2-20-1.2C346.7,345,317.7,356.2,317.7,356.2L317.7,356.2z"/>
		<path class="st7" d="M263.9,329.8l91-0.3c0,0,29.3-2.8,30.4-3.1s12.7,2.8,13.8,3.7c1.1,0.9,1.1,3.4,0.6,5.9l-0.6,2.5
			c0,0,0.9,4.5,0.9,6.5s-2.2,2.5-2.5,3.4c-0.3,0.9,1.7,4-0.6,5.9l-2.2,2c0,0-0.3,5.4-1.4,6.8s-4.5,4-5.9,3.1s-0.9-3.1-0.9-4.5
			s-0.6-2.8-2.2-2.8s-2,1.4-10.7-0.9c-8.7-2.2-18.3-9.9-19.2-10.1s-77.2,20.3-99.8,23.1s-24.5-0.3-25.4-4
			c-0.9-3.7-2.2-12.4-2.2-12.4l-3.9-17.2L263.9,329.8L263.9,329.8z"/>
		<path class="st3" d="M323,224.5c0,0,4.7-4.9,7.7-2.7s5.7,14.1,9.4,13.1s11.1-24,11.1-33.2s-6.4-14.6-7.9-15.1
			c-1.5-0.5-39.4-1-43.8,0.7s-6.2,17.3-7.9,26.7c-1.7,9.4,2.2,11.6,4.7,10.4s12.1-5.2,14.4-5.2S323,224.5,323,224.5L323,224.5z"/>
		<path class="st7" d="M348.4,172.3c0,0-3.5,17.5-4.9,21.9s-11.4,17.5-14,20.3s-10,16.4-12,16.8c-2,0.4-7.5-18.1-7.5-18.1
			s-7.1-12.2-8.5-15.4s-3.5-12.4-3.5-12.4s11.6,10.1,24,7.9s18.7-14.6,18.7-14.6L348.4,172.3L348.4,172.3z"/>
		<g>
			<path class="st7" d="M300.3,137.3c0,0-3.5-3.7-5.4,2s2,15.8,2,15.8L300.3,137.3z"/>
			<path class="st7" d="M300.9,125.8c0,0-5.7,40.6-5.7,42.9s-1.6,10.2,0.8,15.4c2.4,5.1,9.5,11.4,15.2,12.2c5.7,0.8,17-0.4,23.2-5.3
				c6.3-4.9,13.6-15.6,13.6-15.6s7.9-1.2,13-3.4c5.1-2.2,9.1-7.1,8.9-12.2c-0.2-5.1-3.4-9.1-3.4-9.1l-3-5.5l7.9-14.8
				c0,0-4.5-8.5-19.1-16.6c-14.6-8.1-27.6-10.6-33.7-10.6s-13.8,2.6-16,7.5S300.9,125.8,300.9,125.8L300.9,125.8z"/>
			<path class="st5" d="M319.6,105.9c0,0,11.2,18.5,19.7,17.7c8.5-0.8,11-4.7,11-4.7l5.7,7.7c0,0-6.1,2.6-4.9,5.7s6.5,10.2,6.5,10.2
				l-4.3,18.5c0,0,3.4,0.6,3.9-0.6s3.5-8.5,3.5-8.5s1.2-0.8,2.6-1.2s3.1,0,3.1,0s2.2-7.3,3-7.5c0.8-0.2,8.7-2.4,11.6-10.1
				c3-7.7-1.6-19.9-11.8-29.6s-31.9-12.2-33.1-14s5.5,0.8,4.1-3.2c-1.4-3.9-10-9.1-21.1-3.6c-11,5.5-9.5,11.6-8.3,13.6l1.2,2
				c0,0-9.3-3.2-15.8,0.8s-9.6,11.8-6.7,12.6c3,0.8,6.7-1,6.7-1s-3.9,6.5-2.8,7.9s7.3,6.9,7.3,6.9s2.4-13.8,7.3-15.8
				C313.1,108.1,319.6,105.9,319.6,105.9L319.6,105.9z"/>
			<polyline class="st6" points="316.1,132.5 317.9,138.2 307.8,157.1 318.5,161.3 			"/>
			<path class="st5" d="M314.1,130.3c0,0-4.7-3.7-8.7-2.8c-3.9,1-1.6,1.6,1.2,2.6S314.9,133.7,314.1,130.3L314.1,130.3z"/>
			<path class="st5" d="M328.7,129.5c0,0-4.5,1.2-2.4,2.2s8.7-1,11.2,0s5.9,4.3,5.7,2.8c-0.2-1.6-1.8-4.7-5.3-5.9
				C334.4,127.4,328.7,129.6,328.7,129.5L328.7,129.5z"/>
			<path class="st8" d="M311.5,139.1c-0.4,1.4-1.3,2.4-2.2,2.2s-1.2-1.5-0.9-3c0.4-1.4,1.3-2.4,2.2-2.2S311.9,137.6,311.5,139.1z"/>
			<path class="st8" d="M333,144.7c-0.4,1.4-1.3,2.4-2.2,2.2s-1.2-1.5-0.9-3c0.4-1.4,1.3-2.4,2.2-2.2S333.3,143.3,333,144.7z"/>
			<line class="st6" x1="301.7" y1="163.6" x2="309.8" y2="168.9"/>
		</g>
		<g>
			<path class="st3" d="M384.8,211.4c0,0,27.9,10.7,33.3,26.8c5.4,16.1-1.4,36.4-4.2,44.8s-20.3,41.4-23.1,49.3
				c-2.8,7.9-7,17.5-7,17.5s-4-23.7-14.7-38.3c-10.7-14.7-13.2-27.9-13.2-27.9s19.5-34.4,24.5-45.1"/>
			<path class="st3" d="M358.7,277.6c0,0,5.7-2.9,7.6-1.9s26.3,14,29.5,28.9c3.2,14.9-1.6,27.6-4.4,33c-2.9,5.4-8.2,15.9-12.4,17.1
				c-4.1,1.3-7.6-32.7-16.2-50.4C354.3,286.5,358.7,277.7,358.7,277.6L358.7,277.6z"/>
			<path class="st6" d="M368.2,261.3c0,0,5.1-17.2,7-24"/>
		</g>
		<path class="st7" d="M317.3,200.3c0,0-7.9-11-14-18.3c-6.1-7.3-12.4-11.6-14.6-11s-3,2.8-1.6,5.3s7.9,8.3,9.1,9.9s3,7.3,3,7.3
			s-5.7,0.4-6.7,1.6c-1,1.2-2.4,4.3-2.4,4.3s-2,1-3,2.6c-1,1.6-1,2-1.2,2.8c-0.2,0.8-3,2.2-2.8,5.7c0.2,3.6,3.5,8.7,4.7,11
			c1.2,2.4,9.9,12.8,11.4,14.6s10.6,17.5,13,22.9c2.4,5.3,25.2,67,31.9,76.2s19.1,18.1,25.8,21.3s11.4-2.2,14.6-8.9
			c3.1-6.7,5.9-20.1-0.2-35.5c-6.1-15.4-18.1-28.6-27.4-36.5c-9.3-7.9-26.6-27.6-28.6-31.1S324,233,324,233s5.1-15,5.5-18.5
			c0.4-3.6-1.6-9.9-1-12.6s3-8.3,3.9-10.6c1-2.4,4.3-6.3,2.6-8.1s-9.1,0.4-11.6,4.5C320.8,191.8,317.2,200.3,317.3,200.3
			L317.3,200.3z"/>
		<g>
			<path class="st3" d="M256.4,242.9c0.6-3.1,1-5.3,1-5.3"/>
			<path class="st3" d="M254.6,210.6c0,0-14.9,2-30.4,18.6s-8.7,56.1-7.3,64.3s3.7,33.3,3.7,33.3l39.7-13.2c0,0-6.5-44.2-7.1-48.2
				c-0.3-2,0.8-9,1.9-15.5"/>
			<path class="st3" d="M216.5,318c0,0,3.9,21.1,5.9,22.3c2,1.1,32.7-7.3,36.1-7.9c3.4-0.6,5.4,0.3,5.4-2.5s-2.8-16.1-4.5-18.3
				s-38.3,2.5-41.4,3.4C214.8,315.7,216.5,318,216.5,318L216.5,318z"/>
			<path class="st6" d="M239,301.6c11.4,4.5,20.3,9.9,20.3,9.9s-9.6-18-13.5-21.7"/>
			<path class="st6" d="M233.7,299.7c1.1,0.4,2.2,0.8,3.4,1.2"/>
		</g>
		<path class="st6" d="M326.2,391.9c7.3-2.6,14-5.5,18-8.3"/>
		<path class="st6" d="M291.8,402c0,0,15.6-3.7,30.4-8.6"/>
		<path class="st6" d="M357.3,382.5c-7.7,3.8-19.8,9.4-29.7,11.9"/>
		<path class="st6" d="M364.8,378.6c0,0-1.6,0.9-4.2,2.2"/>
	</g>
</g>
<g id="Bubble">
	<g>
		<path class="st5" d="M101.1,20.9C34,53.2,21.3,148.1,63.9,205.1c8.9,11.9,20.5,22,34.3,27.8c47,19.9,84.7-19.7,107.6-56.1
			c36.6-58.1,41.2-72.5,40.5-62.7s16.3,20.3,26.1-31.3c12.5-66-79.8-81-126.6-74.8C130.1,10,114.9,14.2,101.1,20.9L101.1,20.9z"/>
		<path class="st5" d="M251.2,132.3c-3.9,7.1-3.7,14.8,0.6,17.1c4.3,2.4,10.9-1.5,14.8-8.6c3.9-7.1,3.7-14.8-0.6-17.1
			C261.8,121.4,255.2,125.2,251.2,132.3z"/>
		<path class="st5" d="M273.7,142.3c-2.3,4.2-2.2,8.7,0.4,10.1c2.5,1.4,6.4-0.9,8.8-5.1c2.3-4.2,2.2-8.7-0.4-10.1
			C279.9,135.9,276,138.1,273.7,142.3z"/>
	</g>
	<g>
		<path class="st7" d="M105,14.7C37.9,47,25.2,141.9,67.7,198.9c8.9,11.9,20.5,22,34.3,27.8c47,19.9,84.7-19.7,107.6-56.1
			c36.6-58.1,41.1-72.5,40.5-62.7s16.3,20.3,26.1-31.3c12.5-66-79.8-81-126.6-74.8C134,3.9,118.8,8.1,105,14.7L105,14.7z"/>
		<path class="st7" d="M255.1,126.2c-3.9,7.1-3.7,14.8,0.6,17.1s10.9-1.5,14.8-8.6c3.9-7.1,3.7-14.8-0.6-17.1
			C265.7,115.2,259.1,119.1,255.1,126.2L255.1,126.2z"/>
		<path class="st7" d="M277.5,136.2c-2.3,4.2-2.2,8.7,0.4,10.1c2.5,1.4,6.4-0.9,8.8-5.1c2.3-4.2,2.2-8.7-0.4-10.1
			C283.8,129.7,279.9,132,277.5,136.2z"/>
	</g>
</g>
<g id="Gears">
	<g>
		<path class="st9" d="M69.6,86.2V73h8c0.4-2.2,1-4.4,1.7-6.4l-6.9-4L79,51.1l7,4c1.4-1.7,3-3.3,4.7-4.7l-4-7l11.4-6.6l4,7
			c2.1-0.8,4.2-1.3,6.4-1.7v-8h13.2v8c2.2,0.4,4.4,1,6.4,1.7l4-7l11.4,6.6l-4,7c1.7,1.4,3.3,3,4.7,4.7l7-4l6.6,11.4l-6.9,4
			c0.8,2.1,1.3,4.2,1.7,6.4h8v13.2h-8c-0.4,2.2-1,4.4-1.7,6.4l6.9,4l-6.6,11.4l-7-4c-1.4,1.7-3,3.3-4.7,4.7l4,7l-11.4,6.6l-4-6.9
			c-2.1,0.8-4.2,1.3-6.4,1.7v8h-13.2v-8c-2.2-0.4-4.4-1-6.4-1.7l-4,6.9l-11.4-6.6l4-7c-1.7-1.4-3.3-3-4.7-4.7l-7,4l-6.6-11.4l6.9-4
			c-0.8-2.1-1.3-4.2-1.7-6.4H69.6L69.6,86.2z M115.1,104.2c13.6,0,24.6-11,24.6-24.6S128.7,55,115.1,55S90.5,66,90.5,79.6
			S101.5,104.2,115.1,104.2z"/>
		<path class="st9" d="M88.3,163.8v-10.7h6.5c0.3-1.8,0.8-3.6,1.4-5.2l-5.7-3.3l5.4-9.3l5.7,3.3c1.2-1.4,2.4-2.7,3.8-3.8l-3.3-5.7
			l9.3-5.4l3.3,5.7c1.7-0.6,3.4-1.1,5.2-1.4v-6.5h10.7v6.5c1.8,0.3,3.6,0.8,5.2,1.4l3.3-5.7l9.3,5.4l-3.3,5.7
			c1.4,1.2,2.7,2.4,3.8,3.8l5.7-3.3l5.4,9.3l-5.6,3.3c0.6,1.7,1.1,3.4,1.4,5.2h6.5v10.7h-6.5c-0.3,1.8-0.8,3.6-1.4,5.2l5.6,3.3
			l-5.4,9.3l-5.7-3.3c-1.2,1.4-2.4,2.7-3.8,3.8l3.3,5.7l-9.3,5.4l-3.3-5.6c-1.7,0.6-3.4,1.1-5.2,1.4v6.5H120v-6.5
			c-1.8-0.3-3.6-0.8-5.2-1.4l-3.3,5.6l-9.3-5.4l3.3-5.7c-1.4-1.2-2.7-2.4-3.8-3.8l-5.7,3.3l-5.4-9.3l5.7-3.3
			c-0.6-1.7-1.1-3.4-1.4-5.2C94.8,163.8,88.3,163.8,88.3,163.8z M125.3,178.5c11.1,0,20-9,20-20s-9-20-20-20s-20,9-20,20
			S114.3,178.5,125.3,178.5z"/>
		<path class="st9" d="M156.6,139.3v-8.2h5c0.2-1.4,0.6-2.7,1.1-4l-4.3-2.5l4.1-7.1l4.3,2.5c0.9-1.1,1.9-2,2.9-2.9l-2.5-4.3l7.1-4.1
			l2.5,4.3c1.3-0.5,2.6-0.8,4-1.1v-5h8.2v5c1.4,0.2,2.7,0.6,4,1.1l2.5-4.3l7.1,4.1l-2.5,4.3c1.1,0.9,2,1.9,2.9,2.9l4.3-2.5l4.1,7.1
			l-4.3,2.5c0.5,1.3,0.8,2.6,1.1,4h5v8.2h-5c-0.2,1.4-0.6,2.7-1.1,4l4.3,2.5l-4.1,7.1l-4.3-2.5c-0.9,1.1-1.9,2-2.9,2.9l2.5,4.3
			l-7.1,4.1l-2.5-4.3c-1.3,0.5-2.6,0.8-4,1.1v5h-8.2v-5c-1.4-0.2-2.7-0.6-4-1.1l-2.5,4.3l-7.1-4.1l2.5-4.3c-1.1-0.9-2-1.9-2.9-2.9
			l-4.3,2.5l-4.1-7.1l4.3-2.5c-0.5-1.3-0.8-2.6-1.1-4L156.6,139.3L156.6,139.3z M184.7,150.5c8.4,0,15.2-6.8,15.2-15.2
			s-6.8-15.2-15.2-15.2s-15.2,6.8-15.2,15.2S176.3,150.5,184.7,150.5z"/>
		<path class="st9" d="M185.7,63.6v-8.2h5c0.2-1.4,0.6-2.7,1.1-4l-4.3-2.5l4.1-7.1l4.3,2.5c0.9-1,1.9-2,2.9-2.9l-2.5-4.3l7.1-4.1
			l2.5,4.3c1.3-0.5,2.6-0.8,4-1.1v-5h8.2v5c1.4,0.2,2.7,0.6,4,1.1l2.5-4.3l7.1,4.1l-2.5,4.3c1.1,0.9,2,1.9,2.9,2.9l4.3-2.5l4.1,7.1
			l-4.3,2.5c0.5,1.3,0.8,2.6,1.1,4h5v8.2h-5c-0.2,1.4-0.6,2.7-1.1,4l4.3,2.5l-4.1,7.1l-4.3-2.5c-0.9,1.1-1.9,2-2.9,2.9l2.5,4.3
			l-7.1,4.1l-2.5-4.3c-1.3,0.5-2.6,0.8-4,1.1v5h-8.2v-5c-1.4-0.2-2.7-0.6-4-1.1l-2.5,4.3l-7.1-4.1l2.5-4.3c-1.1-0.9-2-1.9-2.9-2.9
			l-4.3,2.5l-4.1-7.1l4.3-2.5c-0.5-1.3-0.8-2.6-1.1-4L185.7,63.6L185.7,63.6z M213.9,74.8c8.4,0,15.2-6.8,15.2-15.2
			s-6.8-15.2-15.2-15.2s-15.2,6.8-15.2,15.2S205.4,74.8,213.9,74.8z"/>
	</g>
</g>
</svg>
