<?xml version="1.0" encoding="UTF-8"?>
<svg xmlns="http://www.w3.org/2000/svg" viewBox="0 0 460.44 460.51">
  <defs>
    <style>
      .cls-1, .cls-2, .cls-3, .cls-4, .cls-5, .cls-6 {
        stroke: #263238;
        stroke-miterlimit: 10;
      }

      .cls-1, .cls-7 {
        fill: #fff;
      }

      .cls-2, .cls-8 {
        fill: #263238;
      }

      .cls-3 {
        stroke-width: .5px;
      }

      .cls-3, .cls-5, .cls-6 {
        fill: none;
      }

      .cls-4, .cls-9 {
        fill: #92e3a9;
      }

      .cls-5 {
        stroke-width: 2px;
      }

      .cls-7 {
        opacity: .7;
      }

      .cls-10 {
        fill: #ccc;
      }
    </style>
  </defs>
  <g id="Background_Simple" data-name="Background Simple">
    <g>
      <path class="cls-9" d="m422.39,298.69s51.1-57.42,34.85-157.33C441,41.44,357.58,4.63,302.22,23.87c-55.36,19.24-67.81,52.69-113.03,71.84-45.22,19.15-131.06,5.99-174.01,70.28-42.95,64.29,11.88,170.83,81.67,237.63,69.79,66.8,247.95,24.97,325.55-104.93Z"/>
      <path class="cls-7" d="m422.39,298.69s51.1-57.42,34.85-157.33C441,41.44,357.58,4.63,302.22,23.87c-55.36,19.24-67.81,52.69-113.03,71.84-45.22,19.15-131.06,5.99-174.01,70.28-42.95,64.29,11.88,170.83,81.67,237.63,69.79,66.8,247.95,24.97,325.55-104.93Z"/>
    </g>
  </g>
  <g id="Line">
    <line class="cls-6" x1="46.58" y1="460.01" x2="446.73" y2="460.01"/>
  </g>
  <g id="Plant">
    <g>
      <g>
        <line class="cls-5" x1="108.67" y1="308.02" x2="124.55" y2="459.81"/>
        <g>
          <g>
            <line class="cls-5" x1="121.73" y1="428.67" x2="114.67" y2="421.21"/>
            <path class="cls-4" d="m116.82,423.45s.2-3.3-2.81-5.99c-1.81-1.62-11.35-5.63-12.25-2.27-.98,3.65,8.78,10.83,15.06,8.26Z"/>
            <line class="cls-3" x1="116.82" y1="423.45" x2="107.74" y2="417.79"/>
          </g>
          <g>
            <line class="cls-5" x1="123.5" y1="445.64" x2="116.44" y2="438.18"/>
            <path class="cls-4" d="m118.59,440.41s.2-3.3-2.81-5.99c-1.81-1.62-11.35-5.63-12.25-2.27-.98,3.65,8.78,10.83,15.06,8.26Z"/>
            <line class="cls-3" x1="118.59" y1="440.41" x2="109.51" y2="434.76"/>
          </g>
          <g>
            <line class="cls-5" x1="117.41" y1="387.26" x2="110.35" y2="379.81"/>
            <path class="cls-4" d="m112.5,382.04s.2-3.3-2.81-5.99c-1.81-1.62-11.35-5.63-12.25-2.27-.98,3.65,8.78,10.83,15.06,8.26Z"/>
            <line class="cls-3" x1="112.5" y1="382.04" x2="103.42" y2="376.38"/>
          </g>
          <g>
            <line class="cls-5" x1="119.18" y1="404.23" x2="112.12" y2="396.78"/>
            <path class="cls-4" d="m114.27,399.01s.2-3.3-2.81-5.99c-1.81-1.62-11.35-5.63-12.25-2.27-.98,3.65,8.78,10.83,15.06,8.26Z"/>
            <line class="cls-3" x1="114.27" y1="399.01" x2="105.19" y2="393.35"/>
          </g>
          <g>
            <line class="cls-5" x1="114.53" y1="359.7" x2="107.47" y2="352.24"/>
            <path class="cls-4" d="m109.62,354.48s.2-3.3-2.81-5.99c-1.81-1.62-11.35-5.63-12.25-2.27-.98,3.65,8.78,10.83,15.06,8.26Z"/>
            <line class="cls-3" x1="109.62" y1="354.48" x2="100.54" y2="348.82"/>
          </g>
          <g>
            <line class="cls-5" x1="111.64" y1="332.01" x2="104.59" y2="324.56"/>
            <path class="cls-4" d="m106.73,326.79s.2-3.3-2.81-5.99c-1.81-1.62-11.35-5.63-12.25-2.27-.98,3.65,8.78,10.83,15.06,8.26Z"/>
            <line class="cls-3" x1="106.73" y1="326.79" x2="97.65" y2="321.14"/>
          </g>
          <g>
            <line class="cls-5" x1="120.54" y1="418.63" x2="125.91" y2="409.88"/>
            <path class="cls-4" d="m124.27,412.5s-.88-3.19,1.51-6.44c1.44-1.96,9.94-7.85,11.52-4.75,1.72,3.37-6.35,12.41-13.03,11.19Z"/>
            <line class="cls-3" x1="124.27" y1="412.5" x2="132.45" y2="404.69"/>
          </g>
          <g>
            <line class="cls-5" x1="115.88" y1="373.98" x2="121.25" y2="365.22"/>
            <path class="cls-4" d="m119.61,367.85s-.88-3.19,1.51-6.44c1.44-1.96,9.94-7.85,11.52-4.75,1.72,3.37-6.35,12.41-13.03,11.19Z"/>
            <line class="cls-3" x1="119.61" y1="367.85" x2="127.79" y2="360.04"/>
          </g>
          <g>
            <line class="cls-5" x1="113.84" y1="354.35" x2="119.2" y2="345.6"/>
            <path class="cls-4" d="m117.57,348.23s-.88-3.19,1.51-6.44c1.44-1.96,9.94-7.85,11.52-4.75,1.72,3.37-6.35,12.41-13.03,11.19Z"/>
            <line class="cls-3" x1="117.57" y1="348.23" x2="125.74" y2="340.42"/>
          </g>
          <g>
            <line class="cls-5" x1="110.83" y1="325.59" x2="116.2" y2="316.83"/>
            <path class="cls-4" d="m114.56,319.46s-.88-3.19,1.51-6.44c1.44-1.96,9.94-7.85,11.52-4.75,1.72,3.37-6.35,12.41-13.03,11.19Z"/>
            <line class="cls-3" x1="114.56" y1="319.46" x2="122.74" y2="311.65"/>
            <path class="cls-4" d="m108.54,307.19s-.88-3.19,1.51-6.44c1.44-1.96,9.94-7.85,11.52-4.75,1.72,3.37-6.35,12.41-13.03,11.19Z"/>
            <line class="cls-3" x1="108.54" y1="307.19" x2="116.71" y2="299.38"/>
            <path class="cls-4" d="m109.01,307.53s-3.26.54-6.24-2.18c-1.8-1.64-6.77-10.71-3.52-11.95,3.53-1.35,11.67,7.62,9.76,14.13Z"/>
            <line class="cls-3" x1="109.01" y1="307.53" x2="102.1" y2="298.58"/>
          </g>
        </g>
      </g>
      <g>
        <line class="cls-5" x1="149.74" y1="328.57" x2="136.61" y2="459.81"/>
        <g>
          <g>
            <line class="cls-5" x1="137.68" y1="449.32" x2="132.31" y2="440.57"/>
            <path class="cls-4" d="m133.94,443.2s.88-3.19-1.52-6.44c-1.44-1.96-9.95-7.85-11.52-4.75-1.72,3.37,6.36,12.4,13.04,11.18Z"/>
            <line class="cls-3" x1="133.94" y1="443.2" x2="126.23" y2="435.79"/>
          </g>
          <g>
            <line class="cls-5" x1="141.98" y1="407.91" x2="136.6" y2="399.16"/>
            <path class="cls-4" d="m138.24,401.79s.88-3.19-1.52-6.44c-1.44-1.96-9.95-7.85-11.52-4.75-1.72,3.37,6.36,12.4,13.04,11.18Z"/>
            <line class="cls-3" x1="138.24" y1="401.79" x2="130.52" y2="394.38"/>
          </g>
          <g>
            <line class="cls-5" x1="140.21" y1="424.88" x2="134.84" y2="416.13"/>
            <path class="cls-4" d="m136.48,418.76s.88-3.19-1.52-6.44c-1.44-1.96-9.95-7.85-11.52-4.75-1.72,3.37,6.36,12.4,13.04,11.18Z"/>
            <line class="cls-3" x1="136.48" y1="418.76" x2="128.76" y2="411.35"/>
          </g>
          <g>
            <line class="cls-5" x1="144.84" y1="380.35" x2="139.46" y2="371.6"/>
            <path class="cls-4" d="m141.1,374.22s.88-3.19-1.52-6.44c-1.44-1.96-9.95-7.85-11.52-4.75-1.72,3.37,6.36,12.4,13.04,11.18Z"/>
            <line class="cls-3" x1="141.1" y1="374.22" x2="133.38" y2="366.82"/>
          </g>
          <g>
            <line class="cls-5" x1="147.71" y1="352.66" x2="142.34" y2="343.91"/>
            <path class="cls-4" d="m143.97,346.54s.88-3.19-1.52-6.44c-1.44-1.96-9.95-7.85-11.52-4.75-1.72,3.37,6.36,12.4,13.04,11.18Z"/>
            <line class="cls-3" x1="143.97" y1="346.54" x2="136.26" y2="339.13"/>
          </g>
          <g>
            <line class="cls-5" x1="138.58" y1="439.25" x2="145.64" y2="431.79"/>
            <path class="cls-4" d="m143.5,434.03s-.2-3.3,2.81-5.99c1.81-1.62,11.34-5.64,12.25-2.28.99,3.65-8.77,10.83-15.06,8.27Z"/>
            <line class="cls-3" x1="143.5" y1="434.03" x2="153.1" y2="428.06"/>
          </g>
          <g>
            <line class="cls-5" x1="143.22" y1="394.6" x2="150.27" y2="387.14"/>
            <path class="cls-4" d="m148.13,389.37s-.2-3.3,2.81-5.99c1.81-1.62,11.34-5.64,12.25-2.28.99,3.65-8.77,10.83-15.06,8.27Z"/>
            <line class="cls-3" x1="148.13" y1="389.37" x2="157.74" y2="383.41"/>
          </g>
          <g>
            <line class="cls-5" x1="145.25" y1="374.97" x2="152.31" y2="367.51"/>
            <path class="cls-4" d="m150.17,369.75s-.2-3.3,2.81-5.99c1.81-1.62,11.34-5.64,12.25-2.28.99,3.65-8.77,10.83-15.06,8.27Z"/>
            <line class="cls-3" x1="150.17" y1="369.75" x2="159.77" y2="363.78"/>
          </g>
          <g>
            <line class="cls-5" x1="148.24" y1="346.2" x2="155.29" y2="338.74"/>
            <path class="cls-4" d="m153.15,340.98s-.2-3.3,2.81-5.99c1.81-1.62,11.34-5.64,12.25-2.28.99,3.65-8.77,10.83-15.06,8.27Z"/>
            <line class="cls-3" x1="153.15" y1="340.98" x2="162.76" y2="335.02"/>
            <path class="cls-4" d="m149.78,327.73s-.2-3.3,2.81-5.99c1.81-1.62,11.34-5.64,12.25-2.28.99,3.65-8.77,10.83-15.06,8.27Z"/>
            <line class="cls-3" x1="149.78" y1="327.73" x2="159.39" y2="321.77"/>
            <path class="cls-4" d="m150.17,328.16s-3.3-.14-5.66-3.42c-1.42-1.97-4.42-11.87-.98-12.42,3.74-.6,9.85,9.86,6.64,15.84Z"/>
            <line class="cls-3" x1="150.17" y1="328.16" x2="145.25" y2="317.98"/>
          </g>
        </g>
      </g>
      <line class="cls-5" x1="132" y1="267.81" x2="131.02" y2="460.04"/>
      <g>
        <g>
          <line class="cls-5" x1="132.15" y1="428.12" x2="125.9" y2="419.98"/>
          <path class="cls-4" d="m127.8,422.42s.54-3.26-2.17-6.25c-1.63-1.8-10.7-6.78-11.95-3.53-1.36,3.53,7.6,11.68,14.12,9.78Z"/>
          <line class="cls-3" x1="127.8" y1="422.42" x2="119.36" y2="415.85"/>
        </g>
        <g>
          <line class="cls-5" x1="132.15" y1="392.67" x2="125.9" y2="384.52"/>
          <path class="cls-4" d="m127.8,386.96s.54-3.26-2.17-6.25c-1.63-1.8-10.7-6.78-11.95-3.53-1.36,3.53,7.6,11.68,14.12,9.78Z"/>
          <line class="cls-3" x1="127.8" y1="386.96" x2="119.36" y2="380.39"/>
        </g>
        <g>
          <line class="cls-5" x1="132.15" y1="351.04" x2="125.9" y2="342.89"/>
          <path class="cls-4" d="m127.8,345.33s.54-3.26-2.17-6.25c-1.63-1.8-10.7-6.78-11.95-3.53-1.36,3.53,7.6,11.68,14.12,9.78Z"/>
          <line class="cls-3" x1="127.8" y1="345.33" x2="119.36" y2="338.76"/>
        </g>
        <g>
          <line class="cls-5" x1="132.15" y1="323.32" x2="125.9" y2="315.17"/>
          <path class="cls-4" d="m127.8,317.62s.54-3.26-2.17-6.25c-1.63-1.8-10.7-6.78-11.95-3.53-1.36,3.53,7.6,11.68,14.12,9.78Z"/>
          <line class="cls-3" x1="127.8" y1="317.62" x2="119.36" y2="311.05"/>
        </g>
        <g>
          <line class="cls-5" x1="132.15" y1="295.49" x2="125.9" y2="287.34"/>
          <path class="cls-4" d="m127.8,289.78s.54-3.26-2.17-6.25c-1.63-1.8-10.7-6.78-11.95-3.53-1.36,3.53,7.6,11.68,14.12,9.78Z"/>
          <line class="cls-3" x1="127.8" y1="289.78" x2="119.36" y2="283.21"/>
        </g>
        <g>
          <line class="cls-5" x1="132.01" y1="438.95" x2="138.25" y2="430.8"/>
          <path class="cls-4" d="m136.35,433.25s-.54-3.26,2.17-6.25c1.63-1.8,10.7-6.78,11.95-3.53,1.36,3.53-7.6,11.68-14.12,9.78Z"/>
          <line class="cls-3" x1="136.35" y1="433.25" x2="145.29" y2="426.33"/>
        </g>
        <g>
          <line class="cls-5" x1="132.01" y1="382.56" x2="138.25" y2="374.41"/>
          <path class="cls-4" d="m136.35,376.85s-.54-3.26,2.17-6.25c1.63-1.8,10.7-6.78,11.95-3.53,1.36,3.53-7.6,11.68-14.12,9.78Z"/>
          <line class="cls-3" x1="136.35" y1="376.85" x2="145.29" y2="369.93"/>
        </g>
        <g>
          <line class="cls-5" x1="132.01" y1="354.72" x2="138.25" y2="346.57"/>
          <path class="cls-4" d="m136.35,349.02s-.54-3.26,2.17-6.25c1.63-1.8,10.7-6.78,11.95-3.53,1.36,3.53-7.6,11.68-14.12,9.78Z"/>
          <line class="cls-3" x1="136.35" y1="349.02" x2="145.29" y2="342.1"/>
        </g>
        <g>
          <line class="cls-5" x1="132.01" y1="317.93" x2="138.25" y2="309.78"/>
          <path class="cls-4" d="m136.35,312.23s-.54-3.26,2.17-6.25c1.63-1.8,10.7-6.78,11.95-3.53,1.36,3.53-7.6,11.68-14.12,9.78Z"/>
          <line class="cls-3" x1="136.35" y1="312.23" x2="145.29" y2="305.31"/>
        </g>
        <g>
          <line class="cls-5" x1="132.01" y1="289.01" x2="138.25" y2="280.86"/>
          <path class="cls-4" d="m136.35,283.31s-.54-3.26,2.17-6.25c1.63-1.8,10.7-6.78,11.95-3.53,1.36,3.53-7.6,11.68-14.12,9.78Z"/>
          <line class="cls-3" x1="136.35" y1="283.31" x2="145.29" y2="276.38"/>
          <path class="cls-4" d="m131.63,270.48s-.54-3.26,2.17-6.25c1.63-1.8,10.7-6.78,11.95-3.53,1.36,3.53-7.6,11.68-14.12,9.78Z"/>
          <line class="cls-3" x1="131.63" y1="270.48" x2="140.57" y2="263.56"/>
          <path class="cls-4" d="m132.07,270.86s-3.3.2-5.98-2.82c-1.62-1.81-5.62-11.35-2.26-12.25,3.65-.98,10.82,8.79,8.24,15.07Z"/>
          <line class="cls-3" x1="132.07" y1="270.86" x2="126.12" y2="261.24"/>
        </g>
      </g>
    </g>
  </g>
  <g id="Character">
    <g>
      <polygon class="cls-2" points="386.04 460.01 380.25 393.38 243.4 393.38 235.85 460.01 386.04 460.01"/>
      <path class="cls-4" d="m302.21,191.43s-40.02,10.99-57.5,24.24c-17.48,13.25-29.6,26.78-26.78,52.43,2.82,25.65,21.14,95.83,21.14,95.83,0,0-2.54,28.47-2.54,30.16s-.28,6.48,5.92,6.76c6.2.28,80.61,3.38,97.24,3.66,16.63.28,38.61-1.41,41.15-3.38,2.54-1.97,3.95-5.07,4.23-8.46.28-3.38,3.1-44.82,3.1-44.82l.28-18.6s18.32-60.88,19.45-80.61c1.13-19.73-6.2-26.21-14.37-32.41-8.17-6.2-33.61-16.7-47.35-20.86-13.75-4.16-43.97-3.95-43.97-3.95Z"/>
      <path class="cls-6" d="m312.08,286.02c-2.04,27.45-5.65,78.05-5.33,86.71.44,12-4.44,15.55-4.44,19.99"/>
      <path class="cls-6" d="m313.42,268.32s-.36,4.68-.91,12.06"/>
      <polygon class="cls-2" points="331.28 303.58 333.84 333.78 348.17 332.76 331.28 303.58"/>
      <path class="cls-2" d="m317.7,356.24s35.02-5.5,37.63-4.92,20.55,9.26,23.16,9.84c2.61.58,4.92,1.74,4.92,1.74l3.93,3.29-1.32-9.94s-5.21-6.37-16.79-11c-11.58-4.63-17.37-2.03-19.97-1.16-2.61.87-31.55,12.16-31.55,12.16Z"/>
      <path class="cls-1" d="m263.88,329.82l91.04-.28s29.31-2.82,30.44-3.1c1.13-.28,12.68,2.82,13.81,3.66,1.13.85,1.13,3.38.56,5.92l-.56,2.54s.85,4.51.85,6.48-2.25,2.54-2.54,3.38c-.28.85,1.69,3.95-.56,5.92l-2.25,1.97s-.28,5.36-1.41,6.76-4.51,3.95-5.92,3.1-.85-3.1-.85-4.51-.56-2.82-2.25-2.82-1.97,1.41-10.71-.85c-8.74-2.25-18.32-9.87-19.17-10.15-.85-.28-77.23,20.29-99.78,23.11-22.55,2.82-24.52-.28-25.37-3.95-.85-3.66-2.25-12.4-2.25-12.4l-3.95-17.19,40.87-7.61Z"/>
      <path class="cls-4" d="m323.05,224.46s4.7-4.95,7.67-2.72c2.97,2.23,5.69,14.11,9.4,13.12,3.71-.99,11.14-24,11.14-33.16s-6.43-14.6-7.92-15.1c-1.48-.49-39.35-.99-43.8.74s-6.19,17.32-7.92,26.73c-1.73,9.4,2.23,11.63,4.7,10.39,2.47-1.24,12.13-5.2,14.35-5.2s12.37,5.2,12.37,5.2Z"/>
      <path class="cls-1" d="m348.4,172.3s-3.55,17.54-4.93,21.87c-1.38,4.33-11.43,17.54-13.99,20.29s-10.05,16.35-12.02,16.75c-1.97.39-7.49-18.13-7.49-18.13,0,0-7.09-12.22-8.47-15.37-1.38-3.15-3.55-12.41-3.55-12.41,0,0,11.63,10.05,24.04,7.88,12.41-2.17,18.72-14.58,18.72-14.58l7.68-6.31Z"/>
      <g>
        <path class="cls-1" d="m300.28,137.35s-3.46-3.71-5.44,1.98c-1.98,5.69,1.98,15.84,1.98,15.84l3.46-17.82Z"/>
        <path class="cls-1" d="m300.91,125.8s-5.71,40.59-5.71,42.95-1.58,10.25.79,15.37c2.36,5.12,9.46,11.43,15.17,12.22,5.71.79,16.95-.39,23.25-5.32,6.31-4.93,13.6-15.57,13.6-15.57,0,0,7.88-1.18,13-3.35,5.12-2.17,9.06-7.09,8.87-12.22-.2-5.12-3.35-9.06-3.35-9.06l-2.96-5.52,7.88-14.78s-4.53-8.47-19.11-16.55c-14.58-8.08-27.59-10.64-33.69-10.64s-13.79,2.56-15.96,7.49-1.77,14.97-1.77,14.97Z"/>
        <path class="cls-2" d="m319.63,105.9s11.23,18.52,19.7,17.73c8.47-.79,11.03-4.73,11.03-4.73l5.71,7.68s-6.11,2.56-4.93,5.71,6.5,10.25,6.5,10.25l-4.33,18.52s3.35.59,3.94-.59c.59-1.18,3.55-8.47,3.55-8.47,0,0,1.18-.79,2.56-1.18,1.38-.39,3.15,0,3.15,0,0,0,2.17-7.29,2.96-7.49.79-.2,8.67-2.36,11.63-10.05,2.96-7.68-1.58-19.9-11.82-29.56s-31.92-12.22-33.1-13.99c-1.18-1.77,5.52.79,4.14-3.15-1.38-3.94-10.05-9.06-21.08-3.55-11.03,5.52-9.46,11.63-8.28,13.6l1.18,1.97s-9.26-3.15-15.76.79-9.65,11.82-6.7,12.61c2.96.79,6.7-.99,6.7-.99,0,0-3.94,6.5-2.76,7.88,1.18,1.38,7.29,6.9,7.29,6.9,0,0,2.36-13.79,7.29-15.76,4.93-1.97,11.43-4.14,11.43-4.14Z"/>
        <polyline class="cls-6" points="316.08 132.5 317.86 138.21 307.81 157.13 318.45 161.27"/>
        <path class="cls-2" d="m314.11,130.33s-4.73-3.74-8.67-2.76c-3.94.99-1.58,1.58,1.18,2.56s8.28,3.55,7.49.2Z"/>
        <path class="cls-2" d="m328.69,129.55s-4.53,1.18-2.36,2.17,8.67-.99,11.23,0,5.91,4.33,5.71,2.76c-.2-1.58-1.77-4.73-5.32-5.91-3.55-1.18-9.26.99-9.26.99Z"/>
        <path class="cls-8" d="m311.51,139.08c-.35,1.43-1.31,2.42-2.16,2.22-.85-.2-1.25-1.53-.91-2.96.35-1.43,1.31-2.42,2.16-2.22s1.25,1.53.91,2.96Z"/>
        <path class="cls-8" d="m332.98,144.69c-.35,1.43-1.31,2.42-2.16,2.22-.85-.2-1.25-1.53-.91-2.96.35-1.43,1.31-2.42,2.16-2.22.85.2,1.25,1.53.91,2.96Z"/>
        <line class="cls-6" x1="301.7" y1="163.63" x2="309.78" y2="168.95"/>
      </g>
      <g>
        <path class="cls-4" d="m384.8,211.44s27.9,10.71,33.26,26.78c5.36,16.07-1.41,36.36-4.23,44.82s-20.29,41.43-23.11,49.33c-2.82,7.89-7.05,17.48-7.05,17.48,0,0-3.95-23.68-14.66-38.33-10.71-14.66-13.25-27.9-13.25-27.9,0,0,19.45-34.39,24.52-45.1"/>
        <path class="cls-4" d="m358.72,277.64s5.71-2.85,7.61-1.9c1.9.95,26.33,13.96,29.5,28.86,3.17,14.91-1.59,27.6-4.44,32.99-2.85,5.39-8.25,15.86-12.37,17.13-4.12,1.27-7.61-32.67-16.18-50.43-8.56-17.76-4.12-26.64-4.12-26.64Z"/>
        <path class="cls-6" d="m368.17,261.33s5.07-17.19,7.05-23.96"/>
      </g>
      <path class="cls-1" d="m317.26,200.28s-7.88-11.03-13.99-18.32c-6.11-7.29-12.41-11.63-14.58-11.03s-2.96,2.76-1.58,5.32,7.88,8.28,9.06,9.85,2.96,7.29,2.96,7.29c0,0-5.71.39-6.7,1.58-.99,1.18-2.36,4.33-2.36,4.33,0,0-1.97.99-2.96,2.56-.99,1.58-.99,1.97-1.18,2.76-.2.79-2.96,2.17-2.76,5.71.2,3.55,3.55,8.67,4.73,11.03,1.18,2.36,9.85,12.81,11.43,14.58s10.64,17.54,13,22.86,25.22,66.99,31.92,76.25c6.7,9.26,19.11,18.13,25.81,21.28,6.7,3.15,11.43-2.17,14.58-8.87,3.15-6.7,5.91-20.1-.2-35.47-6.11-15.37-18.13-28.57-27.39-36.45-9.26-7.88-26.6-27.59-28.57-31.13s-4.53-11.43-4.53-11.43c0,0,5.12-14.97,5.52-18.52.39-3.55-1.58-9.85-.99-12.61.59-2.76,2.96-8.28,3.94-10.64.99-2.36,4.33-6.31,2.56-8.08s-9.06.39-11.63,4.53c-2.56,4.14-6.11,12.61-6.11,12.61Z"/>
      <g>
        <path class="cls-4" d="m256.36,242.95c.6-3.13,1.03-5.3,1.03-5.3"/>
        <path class="cls-4" d="m254.58,210.6s-14.94,1.97-30.44,18.6c-15.5,16.63-8.74,56.09-7.33,64.26,1.41,8.17,3.66,33.26,3.66,33.26l39.74-13.25s-6.48-44.25-7.05-48.2c-.28-1.99.8-9.03,1.94-15.5"/>
        <path class="cls-4" d="m216.53,317.99s3.95,21.14,5.92,22.27c1.97,1.13,32.7-7.33,36.08-7.89,3.38-.56,5.36.28,5.36-2.54s-2.82-16.07-4.51-18.32c-1.69-2.25-38.33,2.54-41.43,3.38-3.1.85-1.41,3.1-1.41,3.1Z"/>
        <path class="cls-6" d="m239.04,301.65c11.4,4.54,20.33,9.86,20.33,9.86,0,0-9.58-18.04-13.53-21.7"/>
        <path class="cls-6" d="m233.72,299.67c1.13.39,2.25.8,3.35,1.22"/>
      </g>
      <path class="cls-6" d="m326.16,391.94c7.29-2.6,14-5.46,18.05-8.28"/>
      <path class="cls-6" d="m291.78,401.98s15.57-3.69,30.35-8.65"/>
      <path class="cls-6" d="m357.28,382.49c-7.66,3.82-19.79,9.4-29.7,11.88"/>
      <path class="cls-6" d="m364.79,378.59s-1.57.87-4.18,2.21"/>
    </g>
  </g>
  <g id="Bubble">
    <g>
      <path class="cls-2" d="m101.12,20.9C34.05,53.21,21.32,148.07,63.87,205.09c8.89,11.92,20.52,21.97,34.28,27.8,47.02,19.94,84.67-19.7,107.58-56.11,36.58-58.14,41.15-72.51,40.5-62.71s16.33,20.25,26.13-31.35C284.88,16.75,192.53,1.75,145.78,7.96c-15.67,2.08-30.86,6.28-44.66,12.93Z"/>
      <path class="cls-2" d="m251.25,132.34c-3.93,7.1-3.67,14.77.59,17.13,4.26,2.36,10.9-1.48,14.84-8.58,3.93-7.1,3.67-14.77-.59-17.13-4.26-2.36-10.9,1.48-14.84,8.58Z"/>
      <path class="cls-2" d="m273.69,142.34c-2.32,4.2-2.17,8.73.35,10.12,2.52,1.39,6.44-.88,8.77-5.07,2.32-4.2,2.17-8.73-.35-10.12-2.52-1.39-6.44.88-8.77,5.07Z"/>
    </g>
    <g>
      <path class="cls-1" d="m104.98,14.72C37.91,47.03,25.19,141.89,67.73,198.91c8.89,11.92,20.52,21.97,34.28,27.8,47.02,19.94,84.67-19.7,107.58-56.11,36.58-58.14,41.15-72.51,40.5-62.71-.65,9.8,16.33,20.25,26.13-31.35C288.75,10.57,196.39-4.43,149.64,1.78c-15.67,2.08-30.86,6.28-44.66,12.93Z"/>
      <path class="cls-1" d="m255.11,126.16c-3.93,7.1-3.67,14.77.59,17.13,4.26,2.36,10.9-1.48,14.84-8.58,3.93-7.1,3.67-14.77-.59-17.13-4.26-2.36-10.9,1.48-14.84,8.58Z"/>
      <path class="cls-1" d="m277.55,136.16c-2.32,4.2-2.17,8.73.35,10.12,2.52,1.39,6.44-.88,8.77-5.07,2.32-4.2,2.17-8.73-.35-10.12-2.52-1.39-6.44.88-8.77,5.07Z"/>
    </g>
  </g>
  <g id="Gears">
    <g>
      <path class="cls-10" d="m69.57,86.21v-13.21h8.04c.39-2.21.96-4.36,1.71-6.42l-6.95-4.01,6.61-11.44,6.97,4.02c1.43-1.7,3-3.27,4.7-4.7l-4.02-6.96,11.44-6.61,4.02,6.95c2.06-.75,4.21-1.32,6.42-1.71v-8.04h13.21v8.04c2.21.39,4.36.96,6.42,1.71l4.01-6.95,11.44,6.61-4.02,6.97c1.7,1.43,3.27,3,4.7,4.7l6.96-4.02,6.6,11.44-6.95,4.02c.75,2.06,1.32,4.21,1.71,6.42h8.04v13.21h-8.04c-.39,2.21-.96,4.36-1.71,6.42l6.95,4.01-6.6,11.44-6.97-4.02c-1.43,1.7-3,3.27-4.7,4.7l4.02,6.96-11.44,6.6-4.02-6.95c-2.06.75-4.21,1.32-6.42,1.71v8.04h-13.21v-8.04c-2.21-.39-4.36-.96-6.42-1.71l-4.01,6.95-11.44-6.6,4.02-6.97c-1.7-1.43-3.27-3-4.7-4.7l-6.96,4.02-6.6-11.44,6.95-4.02c-.75-2.06-1.32-4.21-1.71-6.42h-8.04Zm45.53,18.02c13.59,0,24.61-11.02,24.61-24.61s-11.02-24.61-24.61-24.61-24.61,11.02-24.61,24.61,11.02,24.61,24.61,24.61Z"/>
      <path class="cls-10" d="m88.31,163.84v-10.74h6.54c.32-1.8.78-3.55,1.39-5.22l-5.65-3.26,5.37-9.3,5.66,3.27c1.16-1.38,2.44-2.66,3.82-3.82l-3.27-5.66,9.3-5.37,3.26,5.65c1.68-.61,3.42-1.07,5.22-1.39v-6.54h10.74v6.54c1.8.32,3.55.78,5.22,1.39l3.26-5.65,9.3,5.37-3.27,5.66c1.38,1.16,2.66,2.44,3.82,3.82l5.66-3.27,5.37,9.3-5.65,3.26c.61,1.68,1.07,3.42,1.39,5.22h6.54v10.74h-6.54c-.32,1.8-.78,3.55-1.39,5.22l5.65,3.26-5.37,9.3-5.66-3.27c-1.16,1.38-2.44,2.66-3.82,3.82l3.27,5.66-9.3,5.37-3.26-5.65c-1.68.61-3.42,1.07-5.22,1.39v6.54h-10.74v-6.54c-1.8-.32-3.55-.78-5.22-1.39l-3.26,5.65-9.3-5.37,3.27-5.66c-1.38-1.16-2.66-2.44-3.82-3.82l-5.66,3.27-5.37-9.3,5.65-3.26c-.61-1.68-1.07-3.42-1.39-5.22h-6.54Zm37.01,14.65c11.05,0,20.01-8.96,20.01-20.01s-8.96-20.01-20.01-20.01-20.01,8.96-20.01,20.01,8.96,20.01,20.01,20.01Z"/>
      <path class="cls-10" d="m156.55,139.3v-8.18h4.98c.24-1.37.59-2.7,1.06-3.98l-4.3-2.49,4.09-7.08,4.31,2.49c.88-1.05,1.86-2.02,2.91-2.91l-2.49-4.31,7.08-4.09,2.49,4.31c1.28-.47,2.61-.82,3.98-1.06v-4.98h8.18v4.98c1.37.24,2.7.59,3.98,1.06l2.49-4.3,7.08,4.09-2.49,4.31c1.05.88,2.02,1.86,2.91,2.91l4.31-2.49,4.09,7.08-4.31,2.49c.46,1.28.82,2.61,1.06,3.98h4.98v8.18h-4.98c-.24,1.37-.59,2.7-1.06,3.98l4.3,2.49-4.09,7.08-4.31-2.49c-.88,1.05-1.86,2.02-2.91,2.91l2.49,4.31-7.08,4.09-2.49-4.31c-1.28.47-2.61.82-3.98,1.06v4.98h-8.18v-4.98c-1.37-.24-2.7-.59-3.98-1.06l-2.49,4.3-7.08-4.09,2.49-4.31c-1.05-.88-2.02-1.86-2.91-2.91l-4.31,2.49-4.09-7.08,4.31-2.49c-.46-1.28-.82-2.61-1.06-3.98h-4.98Zm28.19,11.16c8.42,0,15.24-6.82,15.24-15.24s-6.82-15.24-15.24-15.24-15.24,6.82-15.24,15.24,6.82,15.24,15.24,15.24Z"/>
      <path class="cls-10" d="m185.68,63.63v-8.18h4.98c.24-1.37.59-2.7,1.06-3.98l-4.3-2.49,4.09-7.08,4.31,2.49c.88-1.05,1.86-2.02,2.91-2.91l-2.49-4.31,7.08-4.09,2.49,4.31c1.28-.47,2.61-.82,3.98-1.06v-4.98h8.18v4.98c1.37.24,2.7.59,3.98,1.06l2.49-4.3,7.08,4.09-2.49,4.31c1.05.88,2.02,1.86,2.91,2.91l4.31-2.49,4.09,7.08-4.31,2.49c.46,1.28.82,2.61,1.06,3.98h4.98v8.18h-4.98c-.24,1.37-.59,2.7-1.06,3.98l4.3,2.49-4.09,7.08-4.31-2.49c-.88,1.05-1.86,2.02-2.91,2.91l2.49,4.31-7.08,4.09-2.49-4.31c-1.28.46-2.61.82-3.98,1.06v4.98h-8.18v-4.98c-1.37-.24-2.7-.59-3.98-1.06l-2.49,4.3-7.08-4.09,2.49-4.31c-1.05-.88-2.02-1.86-2.91-2.91l-4.31,2.49-4.09-7.08,4.31-2.49c-.46-1.28-.82-2.61-1.06-3.98h-4.98Zm28.19,11.16c8.42,0,15.24-6.82,15.24-15.24s-6.82-15.24-15.24-15.24-15.24,6.82-15.24,15.24,6.82,15.24,15.24,15.24Z"/>
    </g>
  </g>
</svg>